<mxfile host="app.diagrams.net" modified="2022-04-24T10:04:13.047Z" agent="5.0 (Windows NT 10.0; WOW64) AppleWebKit/537.36 (KHTML, like Gecko) Chrome/78.0.3904.108 Safari/537.36" etag="yltOedI3diCuZdmb7a58" version="17.4.6" type="github">
  <diagram id="PL8pw6dKiWsYA6JxfLpO" name="Page-1">
    <mxGraphModel dx="1422" dy="762" grid="0" gridSize="10" guides="1" tooltips="1" connect="1" arrows="1" fold="1" page="0" pageScale="1" pageWidth="827" pageHeight="1169" math="0" shadow="0">
      <root>
        <mxCell id="0" />
        <mxCell id="1" parent="0" />
        <mxCell id="bG5B1XlodGknCoYs8dsf-11" value="" style="shape=image;verticalLabelPosition=bottom;labelBackgroundColor=default;verticalAlign=top;aspect=fixed;imageAspect=0;image=data:image/png,iVBORw0KGgoAAAANSUhEUgAAAioAAAETCAYAAAAYrS1LAAAgAElEQVR4Aey9B5Rc2XUduu97r6pzbjS60UAjDfJgBpOHHObhkMNMBVMSJVmkqSxKlinJ8rf916flL9vfy5YlflvhS6KoQFIUs5kzh5zEyYPBIOfUQOcc6oX71z63CujG9AAdqqqru86bhenuqvfuu3ffF849Z599jLXWQjdFQBFQBBQBRUARUARKEAGvBPukXVIEFAFFQBFQBBQBRUAQUENFLwRFQBFQBBQBRUARKFkE1FAp2anRjikCioAioAgoAopAoBAoAoqAIqAIXIuABWax92b9ce3OM/427nf5kf19xrf6qyKgCCwcATVUFo6ZHqEIKAKrEQFrYW0EJDGQZGDDMdjpISAzDBtNAfEEkIRu5LkcBENjxABeBUyqGvArYSoagXQ9TKoWMAHgpWA8Oq/VcFmNl42OqfAIqKFSeIz1DIqAIlCyCFjYOANMDyGZ7EUyfAzJyEnYwcNipIixEo4C3CeeAmjIcMs5WHK2h5cG/CoYPw2kamHSdTBVa+E1bIHXtBte3SaYyhYg3QDj+SWLhnZMEShFBNRQKcVZ0T4pAopA/hEQj0kiXhEbjsCOXUQydBjJ4CHE/S/CDh+FzYw4r0mSAcRrMtMiMYB4UK7tWi5MZMH/3MZ9PfGmwK+AqVoDr3EHvOY98FtvganbAq+qRYwaeGkY7qubIqAIzImAUR2VOXHRDxUBRWAVIWCTGHbiEpLh40iGDiHpfR7JwAHY8YvOOEEyY7QGCKpgghr5iaASJt0I41cA/Oxao8JGsJnRK+EiRBOw4TgQjQPx9Ix2Gf3xYaraYGrWwWvaCb/lVnhrbodX1wXwHOptmY2X/qUI8LZRQ0WvA0VAEVitCFibiIESd/8Q8fnvIR48KH8ja1hcHbcRr4dp3A6vfgtM7Xp41e0wFS0wFQ3OQPECZ6xcyzWxMSwNEoaFwgnYzCDsRA+SiUuwY+eRDB1BMnwCCEeuno5tMEyUrodXuwl+663wO18Lv+NVMOn6Gfvpr4qAIqCGil4DioAisPoQSGIkE92ggRKd/gri3meAqf6rHBOOOKiBqW6H17QDfvsrJSzjVa+DYUjGrxTvh3hA6EHJcVGu/jIDs1y4x3FXaByJ0ZJEQDSJZPIy7NgFJP37Efc8KeEmO9mX9bbwWBotFTDVa+G33YVg28/Ab93nDJZrvTczzqq/KgLlgoAaKuUy0zpORWCVIyDVQOJp2PHziC7+ENGJTyPpf0GMBWG/MvuG2Ti1G+C13ga/45XwWveJ54Q8ETFKchjNyUXJfbmAn+TFyO7ksSRinJCsm/Q+44yWvueRjJ7JEnVjF1aqbBHPSrDpHWK4kN9imD2Urz4toPu6qyJQCgiooVIKs6B9UAQUgaUhYBMJtcQXvo/o1BcQ9zwNZIZcmzRQqtrgt98Lv/0++G13irFiUnXL9PK3sEkCG47CDp9AfOF7iC//CAnDUpO9gKXB4gMVjfA7X4fU1vfAX3O7S3vOpUMvDS09WhFYUQioobKipks7qwgoArMQIAclGkfSfwDhyc8iPvsNIcjKPsymqe2Ev+ZO+J2vh99xn4R6jFdayY5MjxaS7+XHEV34PpKep2BzYSovgNe4E8HGt8HverMQcIXUOwsE/UMRWN0IqKGyuudXR6cIrFoEhCg7fhHRma8gOvXFbJhnQjgf1CzxN9yPYMODEt4h/6OkX/BicE0hmbiIuPthxGe/jvjSY0A4BsADKhrgt96G1I6fh7/+jU5cbtXOrA5MEZiNgBoqs/HQvxQBRaDUESDvI4mEnJrZ/yeIL/4wm1FjJIvGb38Fgu0/h6D9PiBd6wwXjqnUOR45PguziKb6EXc/ivDFP0My8KLjsMBlJgWb343UrvfD1G9W7kqpX6vav7wgoIZKXmDURhQBRaAoCNDzMD2MqPsHCPd/RIwVIamSh9K4HcGWH0dq60+KTolZ6XyOJEY8dATRoY8iOv8dF9JiCrRfCX/da5De/cvw2l/hPEWlboQV5eLQk6xWBNRQWa0zq+NSBFYZAszqsRPdiE58DuHRj8MOH3MjTDdIloyERdrvdTV2VsnYr+jAXPg+wuOfRtLzhPOueGl4rbcgdfOvI+h8PZaPGLxKgNZhlDQCaqiU9PRo5xQBRYBS9vLfxCVk9n8E8akvQnRIYGHqNiC46aedF6WuC44oe0X0ZFWAl0u7JuE2PPCnwskR7orxRIo/teeXkNryY0BFM5wXaVUMWwehCFxBQA2VK1DoL4qAIlCKCNgkRDJ4RPga9KawsjF1T7yWvUjd/KsI1j8Ak+WilGL/89mnZKIH0bFPiHfFjpyQukQUrUuRk7P9Z+HVbih9Lk4+AdG2ygIBNVTKYpp1kIrAykSAoY9k8DDCF/8c0ekvA5lhIKiWdOPUzveBxFkTVDp115U5xIX1mt6l6UFEF76L8PDfIbn8mCueWNmKYPM7kb7lt+DVdKqxsjBUde8SR0ANlRKfIO2eIlCuCAgnZfQspp/6A8QXvgupz+NXItj0dqRu/jV4TbtgWC+n3DYaK9G4lAXIPP7vkQy+6BBI1YlnRbCpWafGSrldF6t4vGqorOLJ1aEpAisVAaeRcgHTj/4+4vPfcbVz/CoEm96G9L7fganfCiM1eFYXH2Xe80VjxcYiDpd59r+Ksi3iKaCyFeld70dq5/sBVmnWbKB5Q6o7li4CXul2TXumCCgC5YiAGCmjZ5B5/k9EXl4K/KUbEGx5N9J3/Ft4DTfBeH55ewyMEeKw13anYBKsv98VUpzql4yo8NgnYacHXJXEcryIdMyrCgE1VFbVdOpgFIGVjYCEeyZ7ER77FGJyUkicTdUi6HpQUnEdWVQfW7lZpsHmtdyC1N4Pwm+7QwwTO96N8PDfSNVoG0/ndtWfisCKRUDv+BU7ddpxRWAVIhCOIjr9JUQn/gl2qg/wUvDbX4nUrg/Aa9zuqguvwmEvfkhGeDremtuR2ve78Jr2iKfJjp1HdPijUpyRKr66KQIrGQE1VFby7GnfFYFVhIBNYkQXvofw0EdhR8/KyFg9OH3HvxNxM8OKwrrNiQD1Y5gBlb7td+E175Xqy8ngIafey6rMNpnzOP1QEVgJCKihshJmSfuoCKx6BCzs5CVEh/4Gdvi4jNY0bEV63+/Cb94N46XKm5Myj/k3JoDf+VoE298rVaKRRIi7H0F0+G9hJy5DhOPm0Y7uogiUGgJqqJTajGh/FIGyQ8DCZkYQHvl7xJcfB2wMU9UmmStey60a7pnv9UCCbaoeQddbEGx8q3B7EE8iOvNVp0ETTc63Jd1PESgpBNRQKanp0M4oAuWHgI0ziM5+A9HRT4rSKoIa+BvfIqnIThK//DBZ9IhprNS0I6AYXttdIoTHcgPRiU87vRUNAS0aWj1w+RBQQ2X5sNczKwJlj4BogfTtd+GJ8YsijS+8lF2/CKMKq4u6Psjl8Rp3IH3rh+DVbwaQIOl/QdKWk6l+p2S7qJb1IEVgeRBQQ2V5cNezKgKKABHIjCE6+3XEg4fkhWrquhBs+XGQnyKCborSohCg0JvXeit8FitM10uad3zxIeGsWKZ8wy6qXT1IEVgOBNRQWQ7U9ZyKgCIgCCQDBxCf/5aTx/cCBJ1vkHRkIc8qRktDIKhCsPnd8NvudCGg8YuIT37WZVRZNVSWBq4eXUwE1FApJtp6LkVAEXAIUAI+M4rwxGeQDB113pSqtQi2/QxMVatm+OThOjEwouIbbH0PTE0HmAUUXXpM1H7JC4IaK3lAWZsoBgJqqBQDZT2HIqAIzEKAImTxpUcRn/m6I9D6VS7Lp3mPhnxmIbWEP0is9dMINjyAYNM7ncT+9BDCk5+TitTqU1kCtnpoURFQQ6WocOvJFAFFgCt5O9UrmT6uHo0Hf+2dCDa/Q42UQlwe6Tr4G94Er7ZLuCnJ4BHE3T90BmIhzqdtKgJ5RkANlTwDqs0pAorA9RGQTB++LHufclWRK5vgb3y7ZvlcH7ZFf0tSsteyB177PYAXACxTcPbrQGZo0W3qgYpAMRFQQ6WYaOu5FIGyR8AC4ZiEfUQm3/jwW26Bv/YVgF9R9ugUBgADk25CsOHNMNUdzqvS/zyiiz9UtdrCAK6t5hkBNVTyDKg2pwgoAtdBwALJRDfi7ofFYEFQDX/da+DVd4EptboVBgGpsrzmdvhr7wZMAESTIgInhR8Lc0ptVRHIGwJqqOQNSm1IEVAEboSApfjY4GEkAy/Kyt5Ur5ViejRYADVUboTfUr43lc3wO+8HKhqlGZmH3me1YOFSQNVji4KAGipFgVlPoggoAoJAOI7oxGeAaFwME8q8m3qKu2ll5IJfISaA17oPftMuAB7sVL/jCWVGC35qPYEisBQE1FBZCnp6rCKgCCwIgWToCKiQKltlM4KuN8NkV/gLakh3XjAColZbuwF+x6uAVDUQTyPpew52/IJ6VRaMph5QTATUUCkm2nouRaCMERDtlPPfFX4Ewzxe/VZ4rbdpSnIRrwkTVIpXxVStAWyCZOQ04uHjIgZXxG7oqRSBBSGghsqC4NKdFQFFYLEI2OlBxP0vuMODSvhtd8BUtiy2OT1uUQhQrXarGIk8nOEfO3RMvCuqVLsoQPWgIiCghkoRQNZTKAJljwBF3sbOwY6edlCk6uG13Ap4qbKHpqgAUK22uh1ey16AvKBoAsnwMdhwrKjd0JMpAgtBQA2VhaCl+yoCisCiELBJCPJT7GSfEDm9uo2ysofRR9CiAF3CQcZ33izhqSQZJMPHYSd7tZ7yEjDVQwuLgD4lCouvtq4IKAJEgMTNkTOw0QTg+fBqN8BUtYGF83QrMgLGwGu+GSZdLye2E92wY2eL3Ak9nSIwfwTUUJk/VrqnIqAILBIBhhbkZZhkAC8NU9cFk6rTKsmLxHOph5mKVnj1W6QZOzWAREJyyVKb1eMVgYIgoIZKQWDVRhUBRWAmAjYzBDtxGbAxGHrwatYDQeXMXfT3YiLgp+C13eXOyPDP4CEgzhSzB3ouRWDeCKihMm+odEdFQBFYFAIk0k72IxFDxQKpWpja9TBeelHN6UFLR0Ak9ZtJqA2kMcnGiqeW3rC2oAgUAAE1VAoAqjapCCgCVxGwNpE0WITDTjY/XQdK50Nr+1wFqei/GXjkCFW1ypntyClY9agUfRb0hPNDQA2V+eGkeykCisBiEUhCp9cRT7sWaKhUuhfkYpvU4/KAQLoWyM1DNAE7ydCczUPD2oQikF8E1FDJL57amiKgCFyLQJKBnepxomKs8BPULY9sPkNQ2X9XXshzfcb+X/O5tbHIzF85/toxrsC/mfVDr0pus+Pd4vHK/a0/FYFSQcAFKEulN9oPRUARWH0IJBEwPQgkoYiMmZp2mKCquOMUwyOCnbjkhM74gmYxPn4eskBiAtR0wmQ5G6zyLPuGE0DtBkc2NV7WwPJgate5dsSmsYCN3HhMANbUmbXJuWMnU0/dGC8l+9D4cZikQM5IsTcTVMNUNl05bTJ+8crv+osiUEoIqKFSSrOhfVEEViEC4o3IjANJDAq8LZtsfjiG6NSXYaf6kNr+XkTnvwP4lU6VNZ5GaucvAKk6GC8AomlEZ74GO3YBqd2/iOj0l2GjSZjqDlHXTe1+P7yG7VLQLxk6Cqb4UpvEa951haCam0pydJKhY4gvPSbaJcGmtwN+hSj1RhcfRtB+D0zDttzuxfvJcUqKuC/ZWJgaUI9K8dDXMy0AATVUFgCW7qoIKAKLQCCJYEN6LyLAq4SpXreIRvJwiF8hHpHo/Lfh1W9CeOyfRHxODCj2cfIyvJZbkNr4Nvk9OvcdeI3bYWhUhONgrSJWHo5HTiIZOQtTuQbh0U8ikkKL40jf+tvwmna8tKM2RjJ4EOHBvxRDwNSsQ7D2HikIGB7+W5jKZnjLYajAA70qoMESx7DRFESe9hqH0EsHpJ8oAsVFQA2V4uKtZ1MEVj0CycBBhMf/SUInQs2MJpH0PePGnYSITnwacc8T8jeVab36zQi2vQde7caCZQI5iqiBt+Z2pKvbkQwdkurBfsvtiHufgaloAkXQTKoWSDIIT30JduQ4vM7XIh46gmT0jPxjSrWd7EHS84QYJcHGN4tXJjz2CbBMwMtuJBRnxoB4CuHhj8GrXe9CQayxE1/nuJdtMF9fkKboLBM71ZuvRrUdRSCvCKihklc4tTFFQBFAqkZCIgyX8KU/a6N3gUZK1lCBX4XUrvcBQc2s3QrxR9L3AjIH/lQMC69lD/x1r4LftBPJyEkJR3nNu2Eq6hH37Ud47B+F/Bt3P4Lw5OcltEOPSjLRDXpEDEsApOrEyEpIQmWBv9wmnBSqvOaUXq9m0vgb34Zk4AVEZ74qYaRlLbBDvgxF98iPiV2Zg9wQ9KciUEoIqKFSSrOhfVEEVgEC5HEEm96BuO852JGT1x2RqdsIf8ObxaNRaF0VEkfpOaFhYms6QE5GeOJzSPr3y+dREsHUdDjvil8pPBJ/7T1INe1AMnRcvETpPb8Mv+M+mFTWsLI5Y+TqMIWT0n9Awj3w0/DX3H7lS7/1FpiqFkTnvi2cFir1LtvGSsoM/WQJxMvWDz2xInADBDQ9+QYA6deKgCKwMASMl5KXebD+jfKyf9mj/QoEm94Gv/VWmJkeiZc9YPFfMLhhajvhrblDlHFpgPjrXiPkXnIzbDwt/BUaIUHn65Ha8bPyt6nfCH/da+G33eEIsDQs6IUQA+Wqp2RWzyhwN3oG8aVHEV9+Qrgtue9pGKQ2vU14IfGF7zruTu7LYv9kPxl6YlaWbopACSOgHpUSnhztmiKwIhFgem5FM4Ldv4i471kkPU++dBjGh7fmTqS2/2zxihPSrqChEWekCF986kvCGUnv+xDsdL94OUgs9fd9CJ69Azj91Sv8DVPdDv6jl4j8krjnaQSdrxUhu6T3OSAcRzLwIhJ+33Ir/E1vhb/xQTduyfo56n43gNe0G6mb3oPMM/+PhJReCk6RPqG4G9Voc16dGanKReqBnkYRmBcCaqjMCybdSRFQBBaCALVEvNoNSG39CUwPHAQiapVc3UxVG1Jb3u14GtfqjlzdLW+/iY0ycQnJ5R8hGTosXBSk6+A3vwJe4zYg7gLCSZhU/ZweBmbm+C17EV94CCGNkpGTwk+Jux8WYjCNmKT/BUSpWqSZKRQ0Xuk7SbYMOTF1mT8lHLTuNQjodTn3bZiKhiv7Fv0XGilZNVqpZl30DugJFYEbI6CGyo0x0j0UAUVgEQhICKjzDfBOfwlJ96NXNTq8lGTfMNWX4mdF20jsTdUi2Ph22LGzQDSF6NKjwIXvuS4kEbzaTvGuUO+FWieOJGtA0m+w/n7hs1BfxV//BjFUvLoNEr7KjUEMnRx/5cqHPvy2u1BRuwFedbt4aWj4MLwUbHjAZQDl9i3mz1zox7qsI8l40tTkYs6AnmueCKihMk+gdDdFQBFYIAIka9byRf4uZPoPABkWJYRk2ARdD4JE2mK9F+U8dZuQ3vevRBXXslIwaw9RPyUX+mDfvLSEeBBPIn3b78Cr2yRZMZJG3bIHFff83xI2og4L9WDmoyhraPTQI1PZPANAA3qVMEPCfsaXxfmVujb0dGUJwU6Ir1gzUpwh6llWBwJqqKyOedRRKAKliYCXQrDhjaKjEp38gvAh/PX3w+96kwipFa3TkuFSCRN0yClv+DoOKhG03zure8akYOo2gF6U1bDZzAjsRM+VoTB8pZsiUIoIqKFSirOifVIEVgkCUvemeh0oG5/07RfvRWrHL8CraFklI1y5w2DGD0nEuc1QhK4IfKHc+fSnIjBfBNRQmS9Sup8ioAgsCgHWzvFbb4e/4QEnrNZ6i74QF4Vkfg+y00Ow2UKEosybJgH4hr6m/HZCW1ME5oGAGirzAEl3UQQUgSUgwFV6VStSuz4AE1SAJFvdlhkBqueOXwDDP9y8pl0w1IfRTREoQQTUUCnBSdEuKQKrDQEKulFwTbfSQMDaSLRgXBVCp+0iWU6l0T3thSIwCwFVpp0Fh/6hCCgCikAZIBBNizidjNSvkirRRU0VLwOIdYj5Q0ANlfxhqS0pAoqAIrAiELATFyT0w86aqlaYui7lp6yImSvPTqqhUp7zrqNWBBSBMkWARRPj3mezdYaoddOVNVTKFBAddskjoIZKyU+RdlARUAQUgTwikBlF0vusE7zzK+DVb4FX0aT5PnmEWJvKLwJqqOQXT21NEVAEFIHSRcBaJBPdiAcPOkXaVC28pu1AUKOZyaU7a2XfMzVUyv4SUAAUAUWgXBBg2CcZPgo7ekaGTBl/r2G7FEpUS6VcroKVN041VFbenGmPFQFFQBFYBAIWiMYQX/4R7FSf1DBi5WipHm1UqWIRgOohRUJADZUiAa2nUQQUAUVgORGwDPsMn0By+UkgzgBBNfzWfaIWLKUOlrNzem5F4DoIqKFyHXD0K0VAEVAEVg0CSYj40mNirFDozataC3/tPWKwrJox6kBWJQJqqKzKadVBKQKKgCIwA4GsZH58/jtAZlg0U7w1t8NruQXG6GtgBlL6awkioFdoCU6KdkkRUAQUgXwiYG2IuPtRJP0vgN4UFiEMdvwCTFCVz9NoW4pAQRBQQ6UgsGqjioAioAiUCgIWdrIH0fnvwoo3xYPX/gr4zbtKpYPaD0XgugiooXJdePRLRUARUARWOAJJjKT3OSS9TwM2hqlag6DrQeWmrPBpLafua05aOc22jlURUATKCgFm+tix8whPfh524hJgAudN6bgPMH5ZYaGDXbkIqEdl5c6d9lwRUAQUgesjEI0jOvVFxBe/D9gIpnYdUpveDlPdAU1Jvj50+m3pIKAelRlzYakt4KXmrnlhDKjqiCSC8QLAGFdtlCsWG0sr5kYrFDnGnZArHSSZbMVSM6PNGR3SXwuDALGHdRLi15kzayOZH5nX7Ny5eQvdfEnvzBVBT5twfw/Gu7pSdddMCGMCWM63n4aBl71+CjM8bVURIAKiQtv/AqJTXwCmhwAvDX/d6+CtfQWMl7oxSLn7JPfckmddItfurGs4idyzkdlDvAe8tDOCeNy1bcx5Vj5LpcPuHjH+jPtr5gG8b7ll95ffc5+5bxb3/5ntLa4FPaqwCKihksXXxqGQzYKOVyKZuIxk9Kx8Y5HAq90Av3G73OxR9yPw6jfCq1kPpOsl1S8Zv+huznQdksEjsEnoXoJswXjgi85r3A5Tu/7qKibJCAvfpOthJ3vhtd0Br2pNYWdbW8/OKQRzO9UPr34T4t5ngGjaoeP58FtuATiXffvlwSkF2+q3AJxXL434wvfhtewVV7qp3+wMzjiEHb8IU7MOprbzCtKUKk+GjsNruRlx98PwmvdIG15dF4yfvrKf/qII5B2B6SGEx/4RydARadpr2IJgy48LR8UttK5zRholmSEkY+fh1W+GDSeAzAhsNA5T3QZUtTtzIYkRM5PIJjAVjUiGjsJr2MplgDtushfJZI/7feQMbDwlPBmGnUxQDbl/cgZNEiHueULuIa9uozNIvADGS8OGIxLCsvG0tM/nJg0WOzmAZOTENcYLx2XFnvFaboUduwDe67IF1eJZQjQhoS+2Y+o2wQSV1wFDv1puBMreUJEVcjSOeOAg4nPfhEnXiLEB3iCVbUiGjwljnhVGk7FzIpgEJLDTg/Cq2hFdelRuJFPTiWTwMOL+/fJCSyYuyY1MFys3PxqHbzwk4xfkbxuOIzr3TfjNe0FDR1bba+8WEaYbPkSW+6pZyefnA3iyV4wGO9kHOz2E+Nx3xVA0NkYyfFzmgMYlDRhT1Yqo73n44bg87LzmXYgv/gBe827Elx6HN9kj80cjhg91Kn3a6W3yYOZn4bFPIlj/gFwvycAhmLqNSPqeh1l/P1C/+arhupIx1b6XHAKy8Dr9ZURnvuqqJKfrEWz5Cfhrbpvl8btex200hfjCQ7Cstjyw3xnzSQam4SZ4dZucsT5+UQz3YOOD8mwjD8bWdCLu/gGCjW8XYyHufkQ81XbklBgcJPb6HffBpmrhV7Yic/AvYSqbxIBJho7JPWcqWoB4Cqb+JgTr34DozFeAeBLJ6DmR/KfBxWd03PuUGGJe/TZnnHBA9H5PD0oqdrp2E+JLjzhPZ6oWpqJB7leWEfDb7oTXtAsGyfVg0O9KAIGyN1RoecvLqvsRSd1LBg7Ljc1VAVcJXmUzaISQkMYVMfdFOAGGiaLhU7IvvZvG85ziYxKLu1NWC6ka0KgxXF7wpThxCdHFH8CwUmk84VYrXIEHlUhGz8BruAmoWlsCl8Vq7kICO34B8aUfyYPORhMwdV1ulZeql9g9Qz5Jz5NIBg/C2B2iNREPHIAxKfBBilQt4KfEuMFUnxg+iKdhh4/DVq1BwjlP1SDiQz6JRaI87n0adnoAXMnxO15HNIxIbtRtDgSyIdWZYbc59tKPrkWAuNFo7nkS4aGPArzmTAC/7S4Em94m1961h8z1twtnW1AUDpkhVxsoCmEnuuF5KSTRJEzdBsTnviWeCWs82MHD7vnIa7uixXkcq1rEKOE8JplBmJoOmJp28S7beFIWaDQe/I5XO8+k8cXYp7faTlwG/CrwHqW3kt5Ik8QSahc9mKDG9YeidUElbGbEDcWvhFfRIAsLG0/AhqPixWR9I8/bIsfA852XiB4VX70pc10DpfSZPiXpIszyTry6zeJ25IvMhW8s6PlgSIY3QTI14Ap48eJO18lqw2cIIDMMk24QC92OnoZwFeJpgGJKNpbQEd2npnot/PELYvi4FfhFeK23wk4Pw6tqhd+4Q7kLBb47uNLk/NBTwn80QE3jTbBTAzCpWjfv4lJ2D0mG/eg2pnEhYZ+hwzC1GxD3POOMjVSdPHwZOjLRBOhxQaoO8fBJxOe/h2DLjyHufRbJ4CH3IA4nYGiMVjTM4a4u8OBXSvP0bI1fQjJ6Cn7LrXKvrZSuL3c/hZcydFSMFFZJpkvDNGxFsO29EuIQF8d8OhlPO+9xlsPl1VnWl64AACAASURBVHQ5r6+fFi8EDYmk7wUJ1fjrXo2k/wCS4ZPCwbLhmLsnYBGf/76EQs2aOwCfC7JzQOUaMdq5ADSVzfK5eF24QBg87NKmxaCvg9/1FtmXxgq9KiJUt/UnnFeSIabMCDybIL78pDxnxaihN7tuI0xFszy/5d6u7gCfzQnH41XIs1ae8eH4fNDQfZYZATVUuAIJx9yLqqLJWeXGd3/zJpIQUAtMqs65CUmw5E1Usw527By8DQ8gzgxLWCgZOQmGE1jwS1bqjKNm3ZDyYvQ3ykuO8d6YK/bRM4hOf0VWHD45ECplXfjbgYTozLCb3+p22MyYI7oyBk9vmBcIb4UdoeubcXnjV0g8nYZKMngU6V3/AnbyssTbWXnW+imEp74k7mtj0kCSiMHDOWeIiAYQ44C2shV+52vlHBKj1/l+yXzTA5UMHUJ05O8R9zyN1M2/itTWn3zJfvrBHAjQtTvVj/jk5xF3/zAb8mkQ/ILO14mhPcdRc38khFgfNpkGw952qgrxma85A9+vEK9xEk/K4strvhmmcg1AAyXdCH/da8TjKF7GiW4Jp9ITSdG5ZOys85JUr3W8vLoueY46kvq0eD/sRI8s/vzmm2Whx5A8OWHkdEWnvyqGP2X/PYbmk4zwYTgIb+094tWkt0fCRlXN0ifyYjx6MYMap8RLToxfDcMsKF0wzD3/JfapGiokdVU0yg0hxNnKZiQDl5D0PQeftTCadrqXFC/ucBTRpceQ2vFzQKoGHl90FFBirLXlZje1lS1ZIm4Cr2m7uBXpSSE5jO5+/ovOfQvJ4IvwO+8XN6RbYTepN6UYN0dQ6YxMcRMbkGAYDx5CQj5KbSe82i5nSJDY1/ss/ObdCDa/Szwi4g6nd6V+I+zYWZl/U79JQni8huzUEOhq9ttfDzPZLys4ruq4avRq1iEaOn6lbfia+TPXdDM8Gr7wZy5TJZ5C5sn/KAZ80PVWMRiVvzUXatmMmXgK4fFPInPk74HpfvFUpG56D1I7fwFINyyMD8UFFvkoVWth6rcKr0NClQzD2Bh+2x0wk70S0jaVLWKw8KcNJ52RwuwfLviYSNC8GyS10uiPTn8JfufrXDICDR7JoAyQ2vwOxH3PAXWb4He8Srw5pqpFPJ7JyCmkt/yE877YBJkX/hfSt/8+GDoSLZgkQnT2G844i6YQ0LDloiNVKx4aZjjRc+q13iIJEbI4qakGuACRRYRm/bzMVVUyH6uhkmSEd8D4ZzLeDUwPS7yTGTqyWiYBdvScrAbsyGl4jLGShT5yGn7Xm4DMqIR9krFu57Yk6VJcn+uQDJ10q2y6+9MN4p6k1yRYfz/ioBpB52vl3DFdml4gRDf1qhTw3qD3bHpAHoJ80ErNE4b1Bo/Aa9otRgrDPCS7xv0vumytlltA4h1dzrKKY/YXyYWj58SwIaEW04POy5IZRnTuOzAk6MUuQ4irQNGroLcuHEEy8CKSyV4wZEivnG6zEaAXKtj4VvGqMJxgx88j3P8RGL9KXnBam2Y2XvKXeIVHEZ39OsIX/8IZKeR6tL8Swc73SwhkQQYe22O2zsRF+AxxX/w+7NQg0rf9Hmg0xIMH4TXvdR4begW9CpfdWNmCeOgRkDQbDx2D33gTwAxK9mXtveKBpGHAxYCEfHgHTg0Kjy/p349k4AXxyHCRSI+Iy/yhQe8JIZa8P/JWmJXHn5bPZUpK2Ajpvb8O07ANlhlANkHCZzWM9IOhWlPZKM9zhoiEH5auE6Ku8M3mgFQ/Ki0E/A9/+MMfLq0uFbc3ckMOHRYjgR4SZno4T0harHDGQGW1HI7IyiAZPiFufxNUuNgpSV5NOyScwJcZby4Scf26ze5F6FfAo9FDA4cr68omx1eIp+B3vh5+805n1aeq4VW1qVelgNPvSLJPyYOMmQQkBtIwkUyd8W5njNLIZGS/dh0QMAPskKRpSrbAwItgWjGiKZfpQyIt24Dnjp3oBmwIr7LVpTKHY44A6Kcg18t4N+LLj0n7QgwUsnUBB7wCmybpUsiWQZWkutIIFE/k5GWY2i54des1RDpzXmlUCH/jq8js/xMwHZ5eBoZK0rf+qwVl+eSapScl6XnKkcQZ4hy/LLorvNZpZDP7xqUsj0moxqfnOKiSfzQuJd2f3JiadUjGyMlbJ89EarlwoSBSDfSmZDevYRu8ug2ywOMCImh/hRgVPE4WCFwkMMATVMsz2Cep1k+5BSTvOX7L1GlmFfEc5Bgy/ENvjV8J48nREgaiV4eLEkdqr4XPBAYNweamomR/GivBwZLtX8E7xtQ7/hNi5WSvvJQkJssLfrJXViN0QcrmBY4wFo45nY2xC2J4eA3bkYyfh+HKIlUj6X8kbDqLf9JpsFQ0y8qBvBZa+6Z6HbymbbJqZ1xeVvfXio8x3FSEbT6XgPRkRn/cMUxnutrHa/cpQtcXdAq6rO14t/CNhG8ydhaio0D9B5L8xNW9xhmOfto9/IaOwlS2ympQSM80SqkZwRmLppyBwqyInOgfDVOSom3iiNgNW514lbVIpgeQ9D4rxo6p3/IyolYzhiRiWdm/Z2A/Y4+8/TrzGrg6o6JGIedwp3ffzNzXdSDP1wFfvplhhEc+jszz/01CBhRiJAeh4u7/4Iw/ZksVGJO8gVuohsRImUR8/jvI7P/jbGVkyPWXuvW3xTO1GA8Un0fMkKEHUZ6PU71C+GcGIzc+5zym4TMMRGOciQK8X3jNTzBs/rwLmVe3AzQYqJfic2E35BIPajuvCs5lr3G2RW+NRzkHZlpmMeOVxXuJSQky35IlxwSI0D2L6bFM1816DvGc1Hvhs4mLT3pnKLTIRaaEYms7JUwrBhf1WnKGCvHMnjffqr1yz1CHSc5lnTdKjDVPFjf0SsmYs9e02z9yBHyGqGh0lfFW9oZKyc09b3ZWOOXKUkSNCt9DCtwJCXhOPQHjXuYS8sqqWfKlyxAJPVHNe8QrQQVKpitqql/+5ktUbcml4UOKRMACvphpdImxTa0JeoSmBuS8DIeainp4NZ1XHuiS/jpySqwYegpJDGehO76MENQ6j0ju4b8EOHgfZPb/vwiPfhzgSt4YUVVN7/0N4TEwFFC2xkrOmDv2KYSH/1q8CXIPNu9B+pYPQjg96rFb0NUnxoFkASXCb3H3W85kWlBT1+xshVZAIrDXskeMrPDIP0i4isYUtW4Y7qSmCyJSB8ZlH4acGVomz0gkFLKtynVf0SiG5DUnWrV/lreZVqLTypcDK50GG94kJLVCd5MxYWp+cJXCVG1mtDDFVlYqjC+33Ixg0zuzKbWuN3bkJMIDfwFz+79BTDfx6Gmkdv5zpzRZ6A6XS/s0CJlJNt4Nf92rhBBZqKGLB+PoJ8QoZZZNePCvs2q6j7qw6LafumqoTA0gOvQxmKo2mG0/jczzH3GaMiwdMD2E9M2/7h6sSzVWUvVI7fqAhBTCwx8TLY2k90lknv9jpMNR+Jve4YyjQoFSqu1mFwrRqc8jfPHPJWtGrMaqVqT3/DKC9W90CQCl2v+S7ZeFnepB3H/A8QVrqCSen87SmxOd+Cw8qpjHUxIeYyo2ib3RuW8L54ZSBuTq0EAh94YhLAqHUtmaStm5jerpqV3/Qrz3uc9W+081VEpthrlqrN2A8OBfCQs+tedXJTOFbtiZYZZ8dZuekfD0V7JEX9a/iZ13hSv4LCNeygmQ0DZw0Ikw0RtLst3Ai5h+4sMuRDLVi3jgRVTe998l3pyv/pV1O5xzCsed+waSgQMIdv8iPIYQ8/X0nAEuV2keyZDdjyBKNyA89k8wF74HporSEI0ufA9B11sQbHmXhBho2KZ2vU+ukWTyMjwbwW/ai+jU/xYXP8jlWeLGFa2pbkew/Wcl3Ts69FHx3tGIn366F+lo0knCl5NnhR5X3rNH/gHRkb8VHh1hpgx8et/vINjybiEeF+IaWeJ0lvzhhlwX8tJIeO97Dqk9vyzG+JXQ0BJGIBIY04Mum40JF0lGspfoBaOKbjRNUrGF13obvLY7pXxHEk0JCZlhNdIRcsYKOT2S7bSE/qy0Q8ueTFt6E2ayLvQahAf+FHboiHOrV68VPku+H0Bk3bO6KsMLwshnOiI1CujKZ9o2SXKM9dauF4Y+vS3iemSMeOISvJp2eEzrpQfGCxB0valoIavSm7v89khe1FTfHL+I8PDfuFpCzGBIN4h3I6+hIKZ6eikJ5XFFRw0MIUxOXHQE8fpNQjz00g3ygOXc+52vEeVTuX6iKRi+RKWdIEuYzEMtIxplNKIatwkPgiUOEI1JppWks8YZp3YqK07W1crTEji/U7n01vhCI8m1/4CQZqOj/wBM9sicsY4UibPB5ndelVJY+hnLrwVeO8zoZBr10U8i6X8Ohl4V6mkxFL+Ea0uerU27wPuHtZcCJlKsf514LSnlH7TfIwUjg85XS3kCqQtW0SieHeoJBRvf4vS22EbLzS7EvoT+rLTJXXUeFXGZMXQxk4i40maF4kVVa+CvvUdWqPRoMP3O3/BA9iWVv4cxeTCpze9EzAJ8VHRkuQAaKOQb8CVgjCjuButeIwJ14YnPuZCUF2B67KxIc/vt9yA89b+FCOdV578EADkRXEWyP+W4MZU5qlqL6PinxB2c2vk+Vyslj7yVuPsxTO//CPzWW6XEAzUnKOLFgnM0UqkQSzJlePZrosiMdC2SnqcRT/XJy5J1sKgG6tVvFY8gq0jna6PhTM9Kas+vSDmC8PDfusw5aq68+BdizAfbfhp++72uvMEVKma+erC87QhXiQuKiw8hPPRXovkjYVq/Urg6xIVjZwr3vDem8E5cctWO531QeexIAi6NdHJKmLXE8GOw4Y2wC9WiuQKX8wz6bQGSy49LphT5fZQr4Dxyseg13oRg49sk5MPrm+EgEovprWTYKHPor51YXVCNynv+ACTjl9O2+gyV8YuYfvzfOpb4ip5JK9wEYbcPvIDMc/8dqekB+Jve6cSVlhr/n4GNrNBFoMmJ2gkpjyEgsu35wvHSkubHQmRcGcSXH3did5lRMaRkZWsCeOtee4XHMKP5Jf/K8EO4/0/EUFpyYyuyAStGJFMqY4ZjJvuQmupHsOkdoMGQj5CgiN1VtUmoB9VrJSU1vvyEq4vUQ+2JAVf9mxkILCBH3Z91rxEjJjz2KVklpm/+NedJ8Wik5M9QyU0Za2SxsB4qmhEd/pjE8lmHhtLqfJiTI+V3Pei4M+TLrAKDhdWCWZGYCtbRyc/Djp50WTAVjQg6XoPU3g9mVVtJdJ//AobGf+bp/+RSkHMA60+HAJ99o2cl44ZhxpCVm6d6kNr6z4DKlsU948hLufCQcAEpQMdnbmrDmxAPHxODyFTeK/dUdPZriE5/WbS8/HX3iTc9nBpE0PWgGJXR+W+D10S5bavOUBFSGQvEUep+JW909bIUeTYTh6XMMy/+JdJ+BYKbfsrVEcrD+CiRzbRAiibRxc6Vca4AGPkRfPiJLgH1B2o6HcHy7DcQ8SUWTcGrrRXBNKpfBh33Le4mvuE4nNtbSsTfcN/VuYPULaEgIUNu/c8js/8jsuISSf48uIBnVsMVD1vvc0hOXsxeZ0Zi5NT9cZloBtGF70upAXp76PHjA92lhMZAYiHKu/meCnJWUrUINjwgSr/hob8WkTNqY5BXQJKt3/e8KAnTnc6yF/kOleZ7SNdrj+m8TD0OT3xGeELUlOHGcAS5QnxxirjgYlNX+Zxk6q5uL0WAddqIK++3waMID/yZu/aokLvQbCp6r/qeR3jsH+W69Ta+BdH57yLqpVZNP/w1+1wiAlWsKQR603ucR6Vpp4jjRWe+5rSe+D64+IOX9nUxn3ARyuQJL1WgZ/ZiOvXyx5SkoSJpYszRp5hPRaMT0Hr5Mcz6hoqyFa/901mfrcQ/6Bacfuz/kGwa6T/1OShFzRQ2Xlx52ky6SVagMcvBZ40SxmOT0dNyY9J6Fy2CcBzTT/8ncTuzDyy+Z09/DambfwXRqS8hPPl5cVNW3P77eeeo0O2fvvP/LF83tY0Q7v+fUs1ZhB5SNfDX3CFS/nm6DFwzzPiKpqTgYnjys8JNSe/5RQn/0DChwmdq209JeAcXvn/l1H7TDmRMgGTwiHBbJAa/+V3uvs2DEXXlRPyFxgqr4665HWkKibXcgujox8XrQIM6Ov5PiC89Cn/9G5Da8c9B4iFXsCvFYHEpsiOS8h0d/wziiz9wYU8uJMghWvsKCYEx3Cqy+AvwoszEkZik7/3Pq8DzPHNUefpdShF8Gsn+E+5lHlSC9Yy8pj2ix7Lgs9hEFnbM9vG3/pgLYU/0IGKhUr9CFIRFODJdL54TJipIkcbciVh0sfthVySS3pQ8VFwXHs6pL0poi2FDPtNZAoHX2FK4OLku5/tn6RgqWbKYiAKNnkJ89puS7ZDa93vwtrx73uMWt1oBeBLz7kBedrSIe84j6X5ELkpqVDA9OLX3N0ThNh8s9Fw3Dcuds8ii58tKlC7mYNvPOIOkYSui898RVrpwVrw0/C0/JpVH496nxLChlHa6YRsyB/4Mce9zBWGjk6QrN1Gu02X0k+E3lrTnC0sIz3U3ia4CM2FE7yRPhkA8fALxxYeRTHQLOdVr3OmI0TUdCJiGTH2V6ras8NbssI5UBW+9VbwbNGrJJ2KKLKjHUoiNxooon3ZImib7KtwNevkovjdyEtHBk/KwT+16P4L2+0Qd1a2ES7DGEp99NETCMVeo9Pg/uTAPtWNomfLlUbVOCloys4feryUbXkKYL9D8FGLOi9Qm7zc7dBRJ3zNSL4hqyKz1JRlA1R2Le4lT4oEePmZOsqhiVuE6vfXHYZkteflJTD30W0ht/QmkWAogVwCXVdZFQ6naKfTWbULA+nMUsVvqxufK2FkhDTP1nwrp/qZ3iSowWNqD9zsFSPP0fFlqd0vDUEkiEcRJ+p5GdPERJD184IzICk4ejksd5Qo7noTg6ORn5QHlrdknKZh0x1NOeiFx6PkO2wSVAD0rLAFAd2NVKyzLCfS/4KoMt90laqoVt31ILPDMc/9D9D3oVaEYmKnYDHpSmGYnGUHzPbHud30ESAgnD+jM10QEkC9/IY12vCr/YY1oHF7DZngtu4VvQj5IdPILLiSY6yW1HVr3ASzsyGsxt7JjOKbrzcgwpb73aaS2vscZlgV/yLkMOWYfefUbJbbP+D49OmAK6OAhZJ78A8RrbpNVq9/xGiEhkmNjSkHZNrs4k4rHAwdE3ItVj2mYilueuFc0w197t6SG++vvd7pKBcc1N+Fl+JNckp6nkIycgd/+CgnDiC6NcFPmzwGahVw2IYHlN3jfBJveLnPq1W8SxV8pijp8QjLuXDVnIH3LbzqP9mSPGErM+knv/bX8Pf9TdaBui6lqF+0Wyh+EL3wE8ZkviwI0PXdSqkAynmYvTGaNrUh/LK8ybZaHEfc9C6bbyYo8mobfsgf+xreIW5f54wuOCRYJvEKdhimY04/8Hkx9F1I3/bSQ5QqpTEr5eK6kpXIwvSuVzWIoJhQnokQ2ZeBZSIzel3BcHqSMbUsNj5wUvGRZ2RUR7yzUvOW7XfGmMLZ94M9F7ZWeLpErJ7k5zy8rqZUyNQiTqhbVYdYzEulxkqyzG68LZhvY6X73IGeaJNWTs/cxCa2UXhc3sqTTF/EBxz6Eo8JVYXG++Ow3hGArHC8Sz4Nawc5bcxuYwcbQkVe9DhDSbW6ERfrJvsZTItTGl2J87ltSwZvCflQmdV6UNEzDFlB8j/o1zKgS1ec8z3uRRrwyTkMhvbGzyLCwo7UuzNm4I2+4S3KChG78WSEW+TzJZFOgZ5eGIOlZ7kXKRCyWi/Ry6IucwLQrbTB6BvSSy6Jo7CxQuQZB52uQ2vZeF+pdjvtkRr+Xx1DhjZpkpIAWNRiEzc4XYtvdSDG0QFKmyMfTwevi0jP6vLp/TWLQcJMqoevf4IpqFRgDiYvPQJWY52pe5D7OzcO1+7quLXKlkWtcf86JgEjV9z4r3BzWVhFNGzcRc+6/lA9z8zrX3M9s99rvr8SzeU/P2NG9T4t7XeTGwJpN4k059o+ILz4k5HBmTEnNGD5RgiowXMTnjMTnaWzTQ0SSpEmJ8SJPnqUaBYIJSYuR8BJINqbXMel9DvGlhxH3PuuKCOYIrfTysLpww1Ynrrf5HSLkJhoexHap/ZkxP/rrSxFwYZ9jUkqChUrpzVqO6/ilPSvkJww75tpPYMcuIDr3LSfcyDpnNJa3/4xovJArmHdjKXfqG/xcBkOFK59xibmHxz+FZOCgrHSoqOh3vFr0EhwYxX3I3QCn4n2dXW0JHyGPpNniDUDPlC8E5MXLFZjnZx8QZXpPLAZQrhaZNTNwUIwVSu/zWUNDwRksECKjK1K3Xki3LCbJqtmmaq2rZM44PdWZWVSPXpkbGQqyAKNRMunUmlnRd6pf1GO5Uqen1A4fRzJ+QUoNSKE9jk0qRrNI6S747fe5tO+GLaJnc8NzLgYbPWZOBOR+o2eDU1IAr+WcJy21D7PvH+F5nfumJEqQw0gpgtRNPwWPOkv59uzMA4OiGyo2nBAlVKYW2qkBidcxViZ8B1YfvtHDYB6D0l0UAUVAEZCQFKvu0mCYuCjZTMyeiLp/6IocXvEBUSsoW/iRCrckM1ZTmblZ/tG7y+rq8rdoyFTOANdKeJTPMhsOS7op6yaJgUKRwulBR/DNjM4IpWWXsBSyI0Gy683w2+6GadwBj4ZSQM9OEcNmM0ajvyoCggAN/Qyzz55ymXQ9T4gXklmePjlyRV5EF81QEWuVNSqOfQLhkb8TEbHU7l8S0Soht1EgSo0UvUsUAUUg3whICIaSRKHwWOzYecRnvy5ZSlRjJrcFcTg7VVeeRblnkgf4DAmlsqnO1xgRSSyhbAnxMHuHGhXyjwZJzq9OeXZf2jHpZnhNOxxBtv0VogbNcJSGePI98drekhDgfSPid6cRHvlbhCe+ICVTUnt/02X1kTdTpHd2cQwVpkKNnkH44v+H6PSXYBq2IX3rbyHoeLVbySwJTT24HBBw/AMraalq0JbDjBd2jHI9UShu5LjI8bOSLYUPqWHB8BBXk45MHDsDhp4ZUWrOGR7X9o9GTfYfvTPkm/BBTm9MZYvICtB7wppFXss+0aiRbLtrm9G/FYFSQ4AGS2YY4YnPIjz8Ubm2KfBJPqlJNxbFwVB4Q4WDnLiMzMG/dGWum/cgffOvSAqUYT0Z3RSBeSBgmcI+cFCyX6gfIpyBeRynuygCN0LAJjEQjsrDWEI29LLQYJnsE50L0XZi+CgcA6LJlzYnirl1jsuSrnNFRBk2YriIGjQkIVa2uJTyFPkulPfXTRFYWQjQeI/OfBVC24gmkd7zywg2vzv/UglzwFJYQ4VGylQfwqOflHAPyWrpW34LTBFcSWqRc+CmHxUTASoz9jyFzDP/xWWGbX+vqzujcfxizsLqP1cuxZ7PLZauYBHMaNLVVkmmXehoRrr2VUCMe54xbu+nnSfFr5yRgpoLIV09Qn9TBFYcArwvwlGpO0WBT/K6Km79bYi+T6qaFOSCDalggm8512p46osIj31c6oKkb/2XYJql4c2smyIwTwSS6UGpk0Fp9ISy0+EIyG8CiyQWKUY6z67qbisZAbmWjDxvDZzWBVOWC/f4Xclgad/LDgHeHxSK2/Q24VtlnvsjhIf+RsrcUByvkCKK17DC8gl9IlV2o2OfENdQ6pbfhL/mdjVS8glxmbRFtVt/3atFYI4u+fDI32P6mf8CO3YmW+G5TIDQYSoCioAisIwIcGFo0jRW3iFlBZh2Hx78K8fvKmC/CmOo0EU03g3WELCZMaR2/Jyk30kKYAEHo02vTgRMUCVp7Onb/g281tvEBR+f/jLCgx91lZ2F5Lg6x66jUgQUAUWgtBAwyD2T/fVvdCnMRz8uHK9C9bMghgoF3aSiaf9+Kcnub3iTKKwWahDa7upHgG7FYPM7kL71t52xYiMhZ0fH/hGYGhDJ69WPgo5QEVAEFIHSQMBUtEghRb9pp2TzJt0PQyT/C9C9vBsqLKjHwlrhic+A5NngpvdIIS3lEhRg9sqpSboc/Ur4na9Heu8H4TVsh53sQXjoowiPfRJ2rmyMcsJHx6oIKAKKQBERYOYllWqDHT8vKcshvSrDJwuyaMyroUICrR2/INYV866l0mvTbk3HK+LFs6pPJWmg1cIyT+39DZi69ZJGmjnwp4jOf8tlZ1wR2FrVSOjgFAFFQBFYXgRk8Vghysr0dif9BxCd/yYouX9V6DA/XcyrocJiYCzzHvc+g6D9lQg2vNkpOuanr9qKIiAIUCgr6HoQwbafBarWiBx6eOhjSAYPKrlWrxFFQBFQBIqIAJMdgq3/TDSDovPfRTJ0OO/P4fylJ9ObMj0gBcAoVZ3a+X5XAr6IgOmprkGA9Rqo+3C1POY1OxTpT9Y0EbXOPCZ6phuQ2vLjsMMnEJ3+IpK+56SAVqp2AygIp9sMBJJIpLCX1dnEqTfB/Ir7zei6/qoIKAKlj4BXvwXBhvudjMTFhyU0z0rg+VIRz5uhQmHppOdZJJefRtD5Ongtt+Stk6U/TaXZQ1q30cnPifBUIcV4rjv6aNzVddr5Pnitt2TT05dusEgL9ZuR2vNLkhqX9D6N6NQXXHHLTe+A0QKXV6Zl+rk/EoNO6slc+bS4v1AoyqvfKhmAXu36ZSi6Z2d7o3P6O7OMeD7FnI7KS+6XnBjcTFUVuQhnXMtcrIk1aJam7zPzXLl+Fne69GyKwIIQoICrv/FtiM5+S5wV/vo3wGu+eebdsqD2rt05b4YKFRzjiz8QRUdv7T2gUJJuy49AcNNPw++4D4YF0ZZhS4aOYuoHH0Tm6T9E6pZ/Cb/jlchL6QTGRwF4zXuR2v0BZJ445/hRJz4Hr2m3/JvxClmGkZfOKY2fQur2fw2vYeuydSo6+01knvnPQDQh+gtebacU4StYh2g0UPKeZTp47UdT7lRJ6VIETwAAIABJREFUJDoQzhCxUkyQtX1MRaNUPDZe2mUo8vnFtPd4yrXBq43ZZVTgTFjAMIGpaJq1GLNJRirCs8gqqEzLTarQjgJUtuVnbJPH06ChlH6qDmAhQ/aV9YHS9QAl/acHREiLBPJ8rUpdh/T/ikABEDAGXu0GUPgtOvcNJP0viKGSrzPlx1DhQ2GqVwTe2FmvaZcWG8zXDK2GdpIIcc+PgAP/S64Lf+294MszHxvbCbrejPjS46C4YHzpMcTnvi3F32BUAdlhXAomG58RAwiPf0pSGNO7P+AMp0LVvbExqGQsdaGq2qT4IOvtIJxwJTz8CpD8z0KErCEVrLsP8cWHpU4PQ9iitJmqE86dqVkPr7oDcd9z0mc70S1Ght92J2w8hWTgEBBPi7x43H8AfuM2mMo1IqfPWj9xzxNieJj6zaIvxVo/luUf4lCEDO3YOeFXwa+STEkaTlRgpmFpajvhNdwEk27Ix+2ibSgChUMgVQe//V7EF78v902w7Wfydq68GCosBZ0MvIhk8jJSdPnUdLoqt3nrpja04hGQtPVHHF/mlg/CX/sKWanmI23dUNZ5648j6X1SXjrRmS8j2PJumNouXY2W1IVj5YUdnfgMjI2R2vMrMHwZ57tmExdO2TZpJJhULeKBF7NuaANv4CD8rgdEMTvpftQpHicxaIB4TTsk7Z3VlGlQS62f8fMIux8Gw4tebReS8fOu2GBVm3DAorNfd16azIg719AxIPOkE7lMQudlSdfDhhOI+55FastPiGHDczBDIu55RgySZPwCkvPfdpWWKxrEIyT986thmtVQKalLWTvzUgS8wHmy6zbJc9jFWvOzSMqLoUL3aHz5CXHpUyZf3JkaW33pRJb7J8wK6/6hKBim9/4G/K4HpYDbkmExBn7zHskEynB12v8CotNflnpAWldqyejmv4HMEMITnwZrOKX3/Q68xu3Z0GR+HmqW4RZ6PSqa4bc2irci6HwD4suPicfCb9wBZo4xHMXQpF/TIXH1uP8Fx+fyK0RSwY6egalqh6nrdBhM9opuBL0oEk6tWou4+2GAZGVWWw7H4Fe3Ixk6It4SPgetjWAnLoIZkRLWiaeRDJ+QMJOIY6WqYSe7YaNxV2G5Zp14dcAQFBkz1R0wNR35nwNtURHIMwKy6KzpgL/2blcDKI/t5yE92bl0k+Hj7qaq3+wyPPLYSW1qFSEg3rcDyLzwPxFf+J7LSsrH8FK18DpeBa9uk3AAuMq1E5fy0bK2UQgEwjHE576J8Pn/4dLKycvI2+b0nNh+MtkDilAmIyecgTBxSbwrcd9+l6GYrnUclDgDr6JJ4uqSDNB+L5KJy2JYJ5efkPBOMnEJyehpua7sZL+Efcgl8dfsc3yVcES8Mbzugo0PineGqZsml4lGkmy2qjKYCZeuE4+N13aXSJJzkee17IUJaqQaMwmKEv7RsE/ergxtqLAIUFqfCw/hhuXxVEv3qJBMP9WPZOw8/JY98Krb1d2exwla8U3RBR9UA8FscnUyfBLhgb8AU9iCjlcv+Zph3N9r2glv7V1Iho5JjD++9AgKTtpc8RNUpAEwPZ3XwDXXAeeIPJLUzb8mL/R8EEdJHDfVa2EqmqVqOypbEF18SEiqDAe6ayKA17JHPCYseGlHTsFmRuA37YKpXuO81tEULA2T6SHEPU+Kx8OOnZf9bDwJK4ZJr5yL3hNTv1W8yV7VWpi6zWJ8RENHxXAm7yWhhyaoQdL/vHh7vMoW532BAYu7mcGDknUkgllJKKEpj56Yuq4iTZKeRhFYIgJMciD1I88SEUs2VCQhb6oPkPTDLYBa/0uc6dV1OEmF6b2/LnH6a0dGV3l84fsIOl7l0kKv3WEhf/MGqWhB0Hk/4vMPyQsmPv9d+Otep8bzQnAs0L4sp5G+7V8DTFefuQmHow8kkIJpy3lIaBSF7OkhIKgULadk7BxoFHhdD0qIBs174NV1QbzA6XoX5knVirIxjRXLCBTDR+G4GNkmXQ+/cSv8re+Bpee4biNSW38S5JhIFg/DOSS/VrVKiIfaRVTmtvSYZEZlH3r6GB7yO16N5NJjjp9VvQ52/JyEmwxDPo07YEdPwXgNSEZOOh5M/eaZaOnvikCJI2AkdCkOizz2dMmGCuOzXClwCeJizUtvMo/j06aWGQFT0YBg41vn7EUyfhHhgT/Pm6YGV9KMj9IVH42elCyNZOAATHUbDJYnPXvOgZfhh9ROEf2Ua8ZuoykXgqHHJQ9GCsUN7WQfkp6ngKl+xL3PAplheMw0C6oQ9+93qb8168SYcCnbLF3f4L6/9IjrYboWdvwiGOKBn0bQ/iqpNZVEk7JaZAYTPSPM5DHMyhk+7giEqWrJfPBqOpyXZuIyEI8jsbGkOpOIi3Sdkxn3A+edYdpzEjqyLjODwjF5ljJBIVh//zWI6Z+KQGkjIKFLyg/kcVu6VWFjuaFFFqAmv53L4zi1qTJBwKQb4Xe8CtHpr0jKPA0Vv/2VqutTJvMvMZvp/qw+SQJLwwBGUpUFAhoyla3CL6FasqQsk/gfVMJvu0tI2KB4VdsdQEWLhF8YiiE/BROXnYFhfFFC5n5iYDANOqiB1/4KSVEWqYZLj4s3x6MhU9koXCwaUAYe/A1vBIm79CJ5jTdJOIzaQkLInR6UfYN1r3V98zXFvmwu3dUyUC8l3sC8LDyymOTBUEmce5Nx4aq21QK1jmOlImAAf81tMFWtolnBQlki6KUChCt1RhfYbwNTtwkBw0hMOc4MObE3ejS4kcRa0SJeDX/DA07vREwZVwk2Ra0VeDDVLMPgAVyISfgmmtEPI2rLbAvhiGuWMfmgCogzLoxlY5e9QxE3asWQ07LmDke6Za2q2g2uPWb3SCq1ETE8VgRnO6ZqDfxCi+LNGJH+qgjkDQGfhsqavDXHhpZuqNCVQtVF47ubMK/d08YKiYCdHhYSn1PKXOCZ/ErIapEP55LaSObaAK9hG+Kx80hGTotireM/lFRHS6MzFD0bOwdLntkiNkPiKPkVpSJHIBVds6qwNECuw5mjkNuVjcd5aZj6LVc+kkgUBWSpHvty28wHMjFgG6xxkttyuNB7k2uHHJgcqVgysrNp2anaq8fO/DzXlv5UBFYAAoY1vaiwnMctD4YKuWJcrfCOzt5weeygNlU4BOLLj2P6kQ8tKo2XhkDlGz4K07y7cB1cZMtM+/SadyO++EPYyUvyIvbb7tbrcy48bYLM/j9BdPhjc317w89Sez+I9J3/nm/zG+5btB3meg5Rup5bVghuzr685DjW/uE/bqwBZESwkDotIlI3x/6u1g93vUb54dp953pU5vZhGrP019NrNou+/lhBCMh1PNcFvvgx5MVQAbIPgcX3Q49cBgS4wmM2hhV398I6IKqvrKNSipvxRI+CdVmYuUHhLqmnUkov0xLCjfLwXvOeRfXIUI4gHyTYRZ19vgdZxzFhMKdm3dWDyFfJDEn68dUP+Ru9ch1S7oFkWqmTVdHsHCzRhBOTq+2SApsMCzH1WCpDU012esjpo+Q8OdQNmuyTsI5Uk6UBEk2403HlKZlCVK/td9k/DJ+LgNwll/VDz0vOgJndSf1LESgbBPJjqMjCI7fyKBvsVvxAqSORvvs/CCFwoYNhBgVd/qW6SX2UVI3LABk7J1wDoIRW/aUCnPEQ3PRTYLXTxWzUKxEOxmIOLtQxDGdRt4SZP/G0eEEoXc9NlLP5S6pWMsSic9+BnbgMKSTIz0VK/yKCbT8NU9nsSLhJBK9hi2Qt0fBlXalgq0scYG0pqtsKAXfNPsSXfwQT1DodFyHStiCm+OD0kIi3OS2VKjFsSNINNrwRydDxbK2fSikpgMleJEOH4VGLpa5LahN5edalEDD0f4rACkEgP4bKChmsdnM2AiZVv6QKl/l17s3u21L/on4LuSqSYjp2ATYOJb10qe2uuuPJzahdL/8WO7ZSvA6YXUOPYTJBZdppSRkmJ4tkVXJTyCMRb9tkj8jiUyxQtukhRKe+4Lwa5DgNvOiyGpMpKWDIdGcRgZvsQ7Dprc5IqWiQVGhK4wsPJahB1P1DBPSE0DsST8PUrQdDRtReSW3/OXfu4cOS4RP3PiPic3b0LJKeJ5zMf9s9Eqai1oukdauhstjLU49bBQioobIKJnHxQ2DJ+Sy/aBGN3NiHRoJiallc16zlwgd80vMjycKgAJdIli9inKv9EBYIZGHRxW43vA5ItBedlMWeYYHH0UBI1TjjizV/ojFRy6SRQmOB2TQkzTLcwrANVWmTcExOQs8HDQtqp9ixCzDMFqtug9e4E6aiUTIcbd0G8aAkPJ41epBIloMNR+G33CIp0aIb07JXhA7psblS64epzSR4sy/JtNQcYq20pH8/WHmeGUs8p9w3sNIeJfh1UwTKGQE1VMp49uPBw4hOfFZEpwoBAzUq0rt/Me+pavPqK7MvGP/nFo65FNN5HVhmO9kE0akvIqJaagE2ZgNRbC215ceuT2TN87mZxRSd/pLwTNh00vcskvFu52UZOgoJpdhIilnCr3LZQcxeTGrgt9wshggVailIR84KwzMUL2StH7muoknHVWHtniRy/3idhaOwSSIcXNYTYvaDSPb7VSLkRoPFTvXAhsNOkn96WDw6rEVkWJyR3BYq4mY3KQUwM4so94X+VATKCAE1VMposq8dKleMYqgUqHgf05ftTT+1PIaKn5ZaLxwz67JQx0I2EijdL+5vvhS4gq5sdn9fIYYy84Kp9xlRMGUarsvEoJeI+hrWiX/RE0FSMQmSPlO1XeE5vqDFSxHy87QjWVY0SoXx7Inc95nhq5ocPB/Pz4wR9l9+L3BgxVow+ys6+vdXE1xyHczHT+MhxXFsflfxDBXODb0YJkCw+V2SduyGchVfqr9Gxz4lacL0ivhr7hDZeqbq09MimlDM7qlsEWKtHT4JmxlE3Ps0/JZ9ohxrJ3ph0rUwJoVk9CxMVYt4akzNNJK+F1w4iPcWr6/MGBLK49dvFS+LqCVXNmdr/XhC+E7STdnrbVRUbKn3QpKzV7cxHzOhbSgCKxYBNVRW7NQtveMsHsUHOcMihdhk5blcq0GKbGVF3mw44eq2yCAT2MFDwl1gCmk8eEjSs/11r3HZHixk17RDwgFS7yVVjej4Z5Da+T5x6Qv3pXY9bDQp1Z8ph+5VtCAePCiZRsnQEQTrXi91XpKBQ0KkJFE1IQ9h7T3uxUftmVS96LtIsbvqteCLkOqoYhx5AYLO1wMVTYWYltlt0uPRdheCOJyRijt7lyX9xQystjuLGv5j6MaOX4DXsNnVeZpjAGJYVLfB77wf0blvSgiIvBUWKJTK2ywNMnDAeUHEMA1hare4ooXNuxFseZcY+eSQuPpmsVRCFgNpegjJ8FF41GSht8VG8Bq3SZjIX3uXS5uPJuHVrIcdOibhKBYxpCfHjl8CajxXh6iqGX7bbXP0Xj9SBMoLATVUymu+Z42WD8/0vg9lPQWzvsrPH+QmLJehwhHQWBE9i6x3hK/iJER48vPykmDmh9SlIOmWfIOJHnmh8gWXSDXdYYh6aVAFO3YWyeAR+GtrYZHI6pvkSa54mVFCiXWmbJOgmUx0wzA75OJDUnSOoRV6r5LpQcGDNbH4UqInQ5RMKc0+PQCv/nY5L6JYQg9XnDv5mY25WzEGwca3IVj/xrm/z8en9DhdqyuSj3bnaoPelKk+mQ/K0L/clgwfE64IPGrt9AkvhOEXbpSyN2uqxGakN4TzLtcJqyt3vQlx92OILz8hnhKp2F23EdHZbzgV27GzooRLQ1ZSn8e7xQCkgINo+vTvh6nukLBRjiODiN4+i7jnKTFuRFq/aSdIsmWBwwL71F4OIv1cESgZBNRQKZmpKH5HDOuIrOJaIkyhBjkEMzY7PQJmO4n+h18Jk4RZHgNDLoELzfgVjo/AF5fxEWx5N5iRwRRUKV8+Nei8KRX1QtSN+56DZQp0nJGqvFKzhYZLZSsCVssdPIykai38jldK4Tt6U+htic59S15Mfsset6pO1SDpeRJe6z7x2IghVfC3lHGE0VVTYsAC4YSES5jN9LJbPCVVkMUQYEiORmt1h/Oq8ffa9UhtfqcYIzQwk0uPiudJdFiSxHkh03XwmZ3D/dOPC2FXvHgmJcRtr+VWoGk3DK8TyvAnsWT0eE27Jf2Y15ZHT56QZ9NIxi8gGToG41fBa7tDUpNpIOmmCJQ7AmqolPEVYK8oYBYOhLkVPAt3vpktCxFSMjhmCNMlobwA7MQlWC+N+MJ3RU/Dq2oTNVHRhhEhrnZnLFBaPqgRDwpDQnwpxRe+h3jgBaR3vg902TMFOgnHJfQTdL5OuCvJpcfF7R8zfECPSWYEkr5K4mbVGvG++M17IWmxxoArfG/N7fBZ2G78ohCAMVOefebA8vq7hbsObpi7s/izMgW6AGqVc3fIwDRsgl+/0XF/5t5JQp7IZSIxPGM8+MIJ8lyGTlDjOEJiuiQS8hGDgnW4O1/nBAR5/4i3yCC155eyRjEtSythIATV2ZCXS1Nm0UMxnI0PvzpbF41ev+yZTN0GyfKRYodS74f7FNxSfRmE9GNFoHQQUEOldOai6D1hZVmKV11RysxzD5gO7K9/Y97rPsy7mzbMCr1lCaqiTNoBW7dR0lGDtXch6XveFaZjzZrKJvFwSCotU1ir2hBd+J54WryqNeBKWLwqVWsQrLkLQrBlpd5sATqvtkteXAZWyJbxyGlExz6J1M5fQHzpEXlZk7fDTJC45wnn/q9ZC+p7mIomV5OIfWzaWbz6ORRHu/xEltQ5b2QXsKORbJZgbZFKGIhRdOOKw7NCkrQVZm7XKC4b+FLEMLeLeCJxzTlydXxyO6WvERe81ns5h0qyMWmg4pp2c+3pT0WgjBFQQ6WMJz8ZOIjMkx9eVK2f+cBGZc3KlluXx1BhNg69KVyTBtUu5AIr2TfR2W/Cq+kQoqRJVYmhJkJgXGGLpkjiwjiVLUKYpAfEI9+BoSK2xwwgcm/iDOKBgwAzQ6wVd3/S+7SEAEz9JpjRUwi6HhAeC41Cr+1u6UtC0bHqtfDa7waYykrjpHWfcFoYlkrt+5DT15BvCvw/axGe+PSia/3cuHeeGGqBEGqvqX9z44N1D0VAEVAE8lE9WVFcqQiYCmYV3O1qlRRgEBLzX67qykwzZY0VbmKouLo/0aVHxbVPTQ353gTCKwH7SdLs1AAsFUlHT4v73u98A5LxcwjPfBV+0w7hKVCXhSJice+TEl7wajoRj552BNuBF+F33CeKpcn4JQRdb5bUaCFXTlxGQnn08fOS/cMQAbOExJuSGb3y01IQLN0gtWQKMC0vaZLlBvyOV7uQxUu+XeIHxnOy8BrCWCKQergiUL4IqEelfOceXustSL/yv2bDIwUAglk/xUixnavrTFHN6sOIumiqTowQFnhzqcYXJMuC+irMrgA8kBMi6rVTfTCNO+HRK5JulIwgpqom4xfhReOiy2JJnK1qh99+t8jzs/Ahs0OY0UPlUaY2B+tfD1PTDkwNwlS0Iu5/HiyB7q+9N6uaSo2NjHh0mCrudT2IZOAFJJOX4MU7i0N0ps7J9vcioCBbgTZ6tIqW9VOgMWizioAisHwIqKGyfNgv+5kNs1uKQtgs/lBZ8E28IiQqMjRTSbG1SrBSsJAoa9cLeVWqKl/pXpasQEqL8BQckdHUdrpQEUmXHiveroXXsE28KeSzSDhox8+5NG+WDKDx4VE2Pu3IlMz+2fJOR8BkDZpcui6zReo3O0ORGUUk8dKwSeLiSc6T00HvTa7a7xUs9BdFQBFQBEoDATVUSmMetBd5RoBaFBLaEcOiTQixV7I85Fwma4zMyAi6Xh8Ywsilcl9LjCRvZSYBM5dNkmuPxoB8f825xMiZfQsKcdO/lt2Za0h/KgKKgCJQfgjMfkqW3/jLesRUpCUfgyJohdiMVwGvYYtL4SzECa7TJsMwrLvC9FFT11U8D8V1+lSaX1kkrC7NNOyCbM6jRR4Pw266KQKKgCKwUATUUFkoYqto//jyjzD96O+5uigFGJdXtwmVD3zCGSsFaP/lmmSNnaTvOSnuJhk7DNOIXsXLHVHGnycJwv0fQXjk7woDgnBgfh4V9/6h82oV5izaqiKgCKxiBNRQWcWTe6OhmVQdvIbtsBW5gnw3OmJh35MgCvI0iryJuNrgEadvUtMOjwqlupqfexbIx6luh9e0a+7vl/opQ2bk3WjWz1KR1OMVgbJFQA2Vsp16CovtRvqu/wusGFuIjbwMU91aiKav26bU1Rk+JpkmpnaDk8u/7hHl/KWHYOtPwmcRxEJsNIQqWzXrpxDYapuKQJkgoIZKmUz0XMOkQqrfvGeur/L3WZFpCdYmUqmYBd+oi+I17pIU4/wNaJW1xOrJtRsA/ivkph6tQqKrbSsCqxoBNVRW9fTeYHCr7eUhlXMHEF34rqjSmrptCNrvgUlV3wCIMv96tV0HZT6dOnxFYLUhoIbKapvRBYyHFV0TiqIVLPSTluJ7V9J6F9C3xewqJNqeJ0BxNiky17IXhtwLo9LtL4sna/2wQOP04MvusrQvDExFI7zqduUJLQ1IPVoRKFsE1FAp26kHkoEXkXn+jwuWmsqU1PS9f+hUWAuNM70p0wOILzwEO35Jisj5Ha9y/IhCn3tFt58gOv4pRKe/UjAJ/WDj25De+xua9bOirxPtvCKwfAioobJ82C/7mW04hmTkRMHSk5FkgLgwRN1rwRNvSv+LiHt+BMRT8NfcDjFU1JtyLVSz/7YACzImw0cBa2d/l4+/jAfbdlc+WtI2FAFFoEwRUEOlTCeew+bLvPK1fy5F+goCA6sNS2pqvlvn25UZrzOYuplhROe/g2TklNTI8bf8WHE8OfkeWrHbo87Jrg8g2PSOAp3ZwFRRGVjVdgsEsDarCKx6BNRQWfVT/PIDNJXN8CsLo6Hy8mdd+jc2HBdOBWvuGD8lRks8eATxxYdE5M1r2Ytg3WthWHdHt+sjwKyfhq0A/+mmCCgCikAJIqAswxKcFO3SdRAg+XP4JDLP/RHi7h/ChhOw0Tii01+AHTkBBDUINr0TLCSomyKgCCgCisDKR0A9Kit/DstqBNZGsOPnEZ//FpKeJ5Ha9X5QOyU68TmpXuyvfz38ze9YFkXcspoIHawioAgoAkVCQA2VIgGtp8kTAkksVZFtNCnZPZln/xtsEgHTw/AatyO46Sfh1W6EmclfydOptRlFQBFQBBSB4iOghkrxMdczLgUBelRY6VeyiaxkrEhzfiW8tjvht+7TSslLwVePVQQUAUWgxBBQjkqJTYh25wYI2Bg2MwTYaPaOSQg7chLJ2FkJBc3+Uv9SBBQBRUARWKkIqEdlpc7cfPttY1GetUjme0Tx9mPIZiEbRd0yI7ATPUASzz7SxogvPw77+L9D+rbfh7/hARhPU2IdSEznjmALpEA8eyIW+Bf7ZBOXbr7AQ3V3RUARKA8E1FBZzfPsV4igG7qT2ZojJTJmGh0sjLigjdyUzMhLVVRTtTA1nfDqt8JGE4AYZmqoCLZ+FeK+52HGLiwI6qLsnESwE90wdRuLcjo9iSKgCKw8BNRQWXlzNu8e+007YYLqwiiOzrsXL7+jSdXBNO96+R1e8s3/396ZBsd1XXf+f9/SG4DGvhMguO/7YlGkSWqzJMqybEmWl3ESK5NkMk5SNc7U5EPmQ75MTdXMVMaTSWXGYyeylXiLFluyLcmiJIuyRIqiKO4LAAIgQez71kAvb5s65zVAkIQkW2hIDfB0FYnuxnv33fe7F+/939muB7+GCrl+0hYiM8p1QPTqO6BX7IKWv9wvm69kak/iM2ruhpcYBJCNnl6PC8LRcgvyEgJCQAjMRECu5jNRWSDfqXAJ9FBJdp/NtOKyv1VHyVriJLjqrF66DVrF7dDLdkCL1gFmDhSXzP9dG/2tjjxvN+KCbtEsL+jGQybjNm8nmXRcCMwhAREqcwj3k29aAQvs2q9CJTDX/jFU/jLoBSsAsspoMo0/eK4tvHnwwecrvxUCQmAhEZAr/EIazQV/LgoqfykMsp5oBpSsH7PgR1xOUAgIASEgQkXmwPwhoBSUkvV75s+ASU+FgBAQArMnkI3RdbM/K2lBCAgBISAEhIAQWBAERKgsiGGUkxACQkAICAEhsDAJiFBZmOMqZyUEhIAQEAJCYEEQEKGyIIZRTkIICAEhIASEwMIkIMG082FcqXQ8rW3jedxbLzUC5+pBXi1YK94AcO0QAJwF48FLDgJ28vrUZNqVMmVCRYAWAKwY3KHzUKFSqNwarvbqdB6CFirh2iR+mwqgEvz08ly4w/VwB85Dr9oDFan0v6f/3RQXYvProGv+PtPX4vE8qGAhoAf8wmOTbcI/n6mOUv8CBVB6cKptOle7+wi0SAUf0xu7Co3SkoMF6ZopU5su+Deek4I7dhXQNGg5iwBrjCv0evEB/kmrR0+y9Hi8GngstOgSOO2vA2YYWsEqXn6AqvjSfEBiEE7fceiVuwE9CG+sDU7nb6CVboZWuDY9t6bPAwdO9xF4452gInsqXOofk1arpqrBdtyvGkxz0U1dK8zHo6OggjT/DH+OTi2hcOM8MKFofGmepl88D9r8OQ8zF0iN8rlwQUOpwTKJSX4KgQVJQITKPBhWz0nC6Xgd7kS3LwISA7CanoJWsgl62acA3QQ0E3rJFigzF4nDfwl34DRUqCxdOt8DkqOgAnDBXf8NWslGOFd/BavhX6BX7YUqWAl3tAV209PQciqhxzqg5dWAKse6A2fhkbBQCm7PMTidb8AY+gLvA9eGFiqGlxyC3fwUvOSIL3riXeCbpxHim6IX70Vg23/mlY2TR/86XSUV8FJDTF8F8rlqqspdhMDmb0KLLgecJMsYb6IDdsM/QytYAxUqht30rzCWfgHGii9D5VTNg9HLXBeJs3Xxu7zWUWDtHyN17h98AZgWfIH1fw4E832lHWBKAAAgAElEQVTxYI3DuvhPoDEKbPoPsNtfYR1Jxd+c/lMIbPwLkICxmn4Cu/lZmBv/HEoLwu45Cqf5WejV+6FX7OZtYITS84A0iA378s/hxVphDF+Cii5lMULzxR26CPvy874Qyl0Ed+CMP1+NsD8P3BRCt/1XFpzJY38Dj0v6u/BYcOlQZg6LHireZ279K2gkoC0SPoA30Qnr/Hd4vtJn6oO54Rsw6j4HFSqUVPXMTTNpSQhkHQERKlk3JDN0yLXhDjfC7T8FZ+gC34hIlMBNwr70QyAQhR5dAS9SCUUl5JUGvXgT39DpKZkW8HN63uY2qHUvMQTr6st8o9fKtsEdOAdvuNG3siT6oQbP81OxcpJIXfgutNxav+prIAqteDO3ozybb15cgG3l14BwBVt89EV3wbn6EleL5ad7M49vKmSZcUcu8dO0FinnJ3UXDq90rMhaAgUPHvfF7TsBd/Qy94FK5rtDDfAm+qDlVrNgctpf44Jv2pKHZoC1cL8iK4Ox6G7Yba/A6XkH7lA9i09iREXvUhf/CXrpVhiLD8AdboA7eBEGMdJDLAA8J87c1HgH3NErLGLIOqKX72Qh6LQdhDd6BSSMvfEOODQPNA1eYoBFrOLqti70/KVwjTCvI6VoMcjWF2HUfAb6ojtYqJKVhix93uhlaGXbWUSTgHb6TvAccUdaADuRtsZ4vmVHM8GClayHrgW3/wzc7rfhjjTxgPI8GG8Hut70rTJKg9P6ErRwOfRFdwIkhuQlBITAgiQgQmU+DKsZhrniK3BLNsE9+T/YakJPk3QRd8/9P+ilW2Cu+SO+gNNNxaOL/UQXnO63/ZsAuQHo5pBePVcZYeiVtwOpEbi9J+AmR9JupbQJniwo8V54RhhadCm0onX8dMxm/kgFYI3CXP0HfIMiywlZNkh8uK4FrXA1XLqZhMvg9J+BXrYIyozwIoFevI/7TsKEy90bYSgnwS4s7ttEHy8oSMdTqWEocm+4FrzxLqgI3ZDugpYaA1lotOmup/kwhhnoo5ccYB4kLNyxVraoGdV3wr7yC+Zt1h4Acir4Rk/WMiSH2MViN/4YzsBpID4AK9YGL9HHyxBoK7/GN3mybDjdb8Gb6GFxyF2lqeA5zJ5cilrxRp4L5B5UtIYUraWkFAKrfh/JsStApBxabh2Pi6c0FreOHmRXIwkmrXwHu3PIrMOuSd3kZRBIzCq32l+TSunwnAQLI7Ie0VzCRDf0glXsUiKxzvOg6g7oJKZGmsBzSdZ1ysDskiaEQPYSEKGSvWMz1TOqwOrCg9173H8iHWpg1w9dqL1EL7tZ7NYXoVftY/O5XrodHlkvnJQft2In0jEe5YAR5FgEctlYZKYniwvFvng2m/nd1Cic1hfgle+Eufrr0Ctuh9X0NJeqJ4sH3WTo6V0jcbL6cXhWDE7Xm/yPRJJVH+Sq/Z41AS/Rz0/TbFlRBvTauwBNh9N3ildN5rgVimlQBjxrBHrlHui1n4EK5IGsJkCHHwfRc4xjaFReLdz2Q/4N1cyb4nNrvPHgDl1C6vy3fTdf8UYWpmRVIeFGLh67/z2oWDG81BhbXchCQZYR156A0sPwdBPGojtZeKrcxSxuMHAWdturLHa92FXfPVS0jsWM294OlO2EseZxaEVrYbe+AIRLuX0SqwgVQ4WL2J1IY0C/tzteYwseWzhITKRigD3OY+zPA53dShTL4pJ1kGZLsNDvH7mAPJW2ztwNpRRbclxya1bfxUKHYlVUMAq3+yjciR6e77KEwq3xFyBneesSkKyfeTL2JALINE83a2PJ59lMrrF751GonBr/6ZdM9Fd/BXKxeG6SRYGx+D5AU/zZHW+HfekpOANnYF38Ptx4HwdRaqVb+elcK9mSjkmIQMurgyKXgeeC3DxIDUPLX+EHV5JwGmuHlxxmemR1UfkrQDc/vXIXu3P46Z8WEKSATX46d+HF2uHGunyXTmLQ359WQU5NBoX2cJAmBdQaK74CCh61O16HN97Ogb+p4/+Fz82oewBaXu08GblMdVNx8KhethOKhKWZ61srRlvYjUNj68X7/fgQTYdefhu7hfTae1lImKu+xjE+JDyN2nuhFa6CO3gWduMP2VVIcT8U86SVbmLRQlYyCnzV8pdC6QEWs+QSgjUOrXANuw9JHLnjXb4ghmIBRL+j4GyeK5rOwpYCe8n6woHZ7AJs8cWm57L1x5sgsd3HLifAhTvWBi/WxtYS6jeJGqf9VRZk7mADrFPfgpvoh7nmD/jvgdvOFGZpRwgIgawjIBaVrBuSmTtEF3IKajSXPQqd/P43rjaoNHjxHtj1T3LsCmWAUCyDVrEbTu8JFiRk/bC7DkMr/xRf9Dm7Rhkcc0KuIgquJJM7/0sN883BofiV5LB/w2l6Cu5EFwsY99jfcPwCmeWN5Y9Biy6DCw160UaOL6AneboBuYPn2VxPgbCgjKK8WnjhEnYpuH3HoZEVKGcRR6hQHANnJcH1g2ljbXDJrZAaBVmJKFiTslVUXh1nEM1MauF+SzEqWqQKrn6BY1HckWZ4FGBN2VSUcTPRDY0sJoWroRWth3X2731XG1ksKM7Idf3tXYdjRMgS4yUGoXIog8uDO3iB5xXFHflzYAQuCcorL7CooW3JomE1PMniSMWugPpAxzfI8kJip2Alx7nQXKI5Qe1QvBHNIxKgCORDC+TBi9bBI+tMvBdu77tQtBI2xS6RjYUWmqTsNBIyZJWJtcOh+ZQchl7+KW5PM3L9rB/ODCIlvMBW31y401jOTAj8zgREqPzOyD7+HTjVdOAM+/EpM4aDDukJ9YYXWV0Ah60hdEF3Ot/0Yw6UAa1ogy82Ri9DL1oPb/ljcDp+Db1gNWBPwE4O8Y3GG++GlRiAufQRQAsCkSr+Pbl8KOuHtuUnZroRUfBudIkfR5Lshzt0DlbjD6CXbIJFwbl6gLMxtKq9fIPTjCCcvneBVIxvYHQzovgTCuxU7JIKQCvfydkddtvLUJEqGMu+CLfnKAstCpq0G38EsqxQJgtZb26pG5RLrhQSjUNwuo7A6XiN44OCG77Bbja75Wdwet+FXroNJDZ8Nv48YQtZqAg2jaGZA7fvJPSau2HUHYAzVM+pyBQbRHPIXPOHfmbPaAvHoNAxHRIz9gQLC8pAo9ghRYGshat4nFTBCnjWKFtKnN7jUHlLuH3r4vf8NGPPY4sNWc9ozpA1hzLRXBJLCmwxw+A5tvpQdppecRtSF5+Ac+WXfI4k0K3WX0Cr3M3Bv3bLc0ge+SsENn0Tetm2tIvxhj8I+SgEhMCCICBCZT4MY2IAbs87bE7XqG7FzRrlurMgAUIpqBwjQm4Cawz2pR+xK4XM9ZzCmlsDQGcrDaX6wozCHb4Ej56QjRyAzP701Bvv4UBMioWgm5NR+wDlFXO6qOskoOfVwOk/DXe0FXrxRl/0NP8UGmUflW7xM40og0cpkKuKXQfFG+DG2jn+RWkmxzVQgC+lSNNnciOZXNtljNOsyYqjB/JhLv8iP6VTpgr0W2/qUvA01zAhoUJWiEiVbwUjVwnZswrXsLvPI5dbuubO5MRQkTIWDvaln8AargcCeSxMqQ1FQaqhIhaFVEOF2uaxCETZfYRwCRS57UavcC0dkGtu2U4/GJuCeqlOTv4SP4V+uBHkQvTGrsCiwNvoUk5LdwbPwWkbgkcCt3A1B00b1fuA/tNQeYs5JsYbbvItKclRv1ZM8Xro+cvZpUW1XpAcY4sSCVY6V3ILkqsIEA/25DjLTyGwEAncelf7+TiKmsnuGjLnUyry+yoVytKhIMtwBV/w3VgbtNxFfpBtTiU8KsBlTfATLt2YtMKVfMMidwoV/LLqv8fZQkbtPf4NSikWPFRLhepv6Cu+7KebpgMh6cmZMkgo7oFEDcUlOF1vcTqxsfTzaZfRECiw1qjeDy1SxuZ6Ktim5S32szootoFiamJt0Eu2coCnQdkeFBx66V/5CV8v3eHHTRg5fn0PeoKmol8fptjm41h/QJ/JdaLX3AMjWMSpv26ij1035BrhF1nZyMVGcUVmhN0wiuYLrzod4LRlspi4/ac5zZnTwiMV0PJXcrArjQsVcrMaf8iWOBpX5hzvY2saCUaagxyQW7gWdHy3/yzcvvc4w0gr3YFA4XooEq/tv+Z6Kcayh+GS2yY1zP3Sq+7gVGKaKyq6GLqRw2nKXmoULonlkSboFOcSKgPPA4fqtjzHMSx69T7oVIiOisHV3AOtbIdfe0XTP4Ca/EoICIH5TkB5lMs6ixfFPSQP/yc4fe8h8oVDfprhLNqTXWcgQOnGFLhK6Z5UL2IGtw/t5ZG1hG4IdAPXKG5hnGMUKAuE9uOgRjc1dWOgehdkvidXAFUVpYBMCtSkp2+KJaB6LFQJlQpy0XaKioml01I9inNIjXAxOI4n4G5rnOFB8RKc0UOpxckh/8ZJRd10E26sg7N6qLgYuYa430kKrB1ilxZVvKUsDk6xJrcApSmb+b5LgArb3cIvCi4m9wuMCKcXUyovW8imKv2SkSyYZk+Brp3QwmU8B2jO8PhTDFK8Pz3GUYDS2dkds5SzbNzEEGcK0XyhFHOKG6K6JmQhoXlFbhkSy5SJRi/PsbhwH3+mMZ6skkzzlYJoQ4V+PEzKT4HneUG1WSjlnLanYGtqi+JRKM4m3gMVLOb+cTaP53HgLAks2pdcWkqEyS38VyCnPh8I2K0vQa+9j68pmeivCJVMUPw42pjUk+8jUn63LlBJftrD89ND0ztT+jHfjKYfgzdMBytO/573obRm2mXSF5X+TL+b+i7dOB1t8hymfk37+fvcdGwSZ+ldufUZ2rvW8i3ybpKfD+QDT9pnnR7f6ewm26C90/jTg8hjNuN+PBaTc2Nyx2mHn2xzpuNM/25yl/cb2/RxOGV5ar/Juep3d6Z5Ndms/BQCQiA7CGRaqIjrJzvG9cN7MXXh/vBNP3wLlb7e8x1vanO+QUx9Sr/h416/3bVNVPruMfnNjZ8nv/d/Ul2Mm1/+Pjcdm9wVN298a38zI7+ZkfisZyB4Yxu8ybXtZtyPx+LaNjcd8cY2aYOZvpvc8f3GdsbjTM7VyZ3lpxAQArcagQxGoX3AhexWoyrnKwSEgBAQAkJACGSEQGaECj09iU7JyIBII0JACAgBISAEhMA1AhkRKmKkvwZU3gkBISAEhIAQEAKZI5ARocJR+xQWSVkn8hICQkAICAEhIARuTQIUXJ9hLZABoaL8NFNKV6VUVHkJASEgBISAEBACtyQBz7O5pEUmT372QoXqJlBRKVoSnpeJz2T3pC0hIASEgBAQAkJg3hCgukuJwYx2NwNCxfBX3IWCO9Z6U+nujPZWGhMCQkAICAEhIASylwAtJDrR6dfIylAvZy1UqEokLZQHWtJ9pImrWGaob9KMEBACQkAICAEhMI8IeNY4V7fOZJdnLVQoL5nLWgcL4I5d8Uu9Z7KH0pYQEAJCQAgIASEwDwh4vBiuO9Gb0b7OXqhQCZVQCbTcGrgjLbyo3fRS6RntrTQmBISAEBACQkAIZCUBuvfTIqleoj+j/Zu9UCGLCq1mWriORYo7dBGgVXrlJQSEgBAQAkJACNwiBDzAisEdOOcvSJrBs86AUKEFUwMwSjZx8Iw7cBa0ZHt61bsMdlWaEgJCQAgIASEgBLKRAJVPocxfZ/AsVG51RruYEaFCS7urglXs/nEGz/umn6m1bzPaX2lMCAgBISAEhIAQyDYCrgVn4AzckWbohWvTy7NnppMZEioKKlIGvWofvPEukFUFjrh/MjNE0ooQEAJCQAgIgSwnkBqB0/UWV6XVyrZntLOZESrUJS0AvXo/VCAKp+MQkBrOaEelMSEgBISAEBACQiALCXgeKD7V7T4KrWgtdA4FyVw/MyZUaPFkLX859LLtcAZOw+k9nrleSktCQAgIASEgBIRAVhLwnATstoPwnCSMqr1QkSqQJsjUK2NCBUoBgQLo1fugzFxYF74LV9b+ydQ4STtCQAgIASEgBLKSgDvSBKf9dd+aUrkbMMJgTZCh3mZOqFCHNAN6yWbolXvgDFyA3fhjeHZcMoAyNFjSjBDIGAEO0acw/ff5N3UgD57n8j/MFCA/bf/J7biOEtVTSP/jpqZtN9W0vBECQmB+E6C/8eQwGyboXm8sPgCVvxyKDBcZfBkZbMvvXLgUxpIH4XQfhX35OejF66GV74LSzUweStoSAkJgFgQ8ayxdRZqEiutH6NPFxQNUpBTKiPit04Voopt/ryLlU09JHi08lhoD+EHEZsFD39HipFQAEnoQnhWDChWzOdizJ7jGAi1gSm0rM2cWvZddhYAQ+MQJ0LXBisFueprjUvWqvZxQo7TM3+szKlQYnNKhFW+EseqrsE7/L1gtP0MgrxbIXZxxlfWJD5R0QAjMUwJO/ym4I5ehQoXwRpqhwqWAkQMv3gtj0V3wQoVwhxoBexzu4AXAdaAVrwPMHOhF6+HZMTidh/2zJzMvvzwopQPKgBvvgzt4HnrpFnjxPrasevEeqEgloAdgLr4/vY/8EAJCYD4S8DwbTt8JWJef43APc/kXwQ8zc3AymRcq9OxlhGEufRhu7wlWWnZ0Gcw1j/NFbg7OQZoUAkLgdyHgOrzchZa7CFrROlj9Z6DX3A0oE85EL+gC5A01cE0ELW8xVHQJW10oUM7tP81WEio/4MGDUbYVMPP46EppLFLIBeR0v8NLvVvNPwU/YQWi8FLDUHYcKlT0u/RWthUCQiALCdADCFlTvNHLMNf9CbSyHaBFiufiNSdChRYqRCAf5pp/yzX/rYZ/hoqUwKh7CEoPTZmP5+KEpE0hIAQ+mAC5YbyJXjjxPjhDDVz3yIlUwkuNAE6Sn47coQZoOVXQK27zrSRUdzo5Anf0CpQy4Iw2wG59CU7nm9DCZVyV2ksMQEWXwlh0J5AagQoXQwXyOHaN2qa/ffqn5db67iYSNvISAkJgfhGgVOTUCKz6J+F0H4a+5EEYyx8DdLKsZjY2ZRLMHAkVXlMZWtFqmCu/itSZv4N14Z+gAoUgPxZZXOQlBITAJ0OAl7jQA9BLt/JyF17BSujl2+GOXoaXGGIx4Y13guNKXHfqwYKC5sgVBDMXlI6oF6ziC5Ox9CF49jic9kNcokCFS4BAHrRIBZ+gM3iOXUcgt5BrQ+VUfTInLkcVAkJgdgQoLiXRD7v5Gf6nl26DufJrUJGKOQ3tmDOhQqlJSg9zcI2ZHELq/Hdgnf0HNg3rVXt4faBMpi/Njr7sLQRuEQJ0oUkNcywKpRRSoCxZShxao2uih8UFuW5ocTGdTLlpscF0SKQUrgY8G0gOQy/f6ddLosDcxCDITWRQaiK7fyNQ0Vp4Q41QehCgADs9xMfQ85fSAmG3CHA5TSGwQAjQtSM5BLvlp7Dqv88PHMaq34NWsBLs9p3D05w7oUKd5toq+dCXPATTisG6+H1Yp/8n4CahV9/pX8AynMY0h6ykaSEwvwnQhcZNwYt1cEAsVZCk7Dw9Ug69aB0cEiiBfHhjrX5NpPKdUGY6+4ecO/R7z4HTd4o5aIWr4Y53IHXu/0KLLoex/BFQVg8F5NIFzRu+xJYXcgd5I5ehRevgBQvBlpX5TVJ6LwRuIQJUagBAahRW8zPs8lFmHsx1/44fVmhR4rl+KY+LHsz1Yci/PQy7+Vmk6r/HBzPX/hHMus8BwcI5NRnN/ZnJEYTAPCFAvuWxq3Dafw295k6ocBnsqy+zK9azk3DHOzkuxR1ugLnsUWj5S246MTfeD7vlWSgzH5yOTHEtgQJ44+2cdkxrfPAyGu2vQ+VUAHbiWg2W1Bi0kk0wqvfe1K58IQSEQHYS8FybH14o1pSyePWC1TDX/3volbuh9LkXKUTlYxMqJMkooM6++itYF7/H742lX+ALoqLMAk5rnJtAnOwcfumVEPiYCZBQGe9iiwdZU+hFQbOAy1YSSlHmf57DS2FQAccbXyRUvNEWeNaEv/hY0SoWPJQBQOnICBVBz1/BlhRyJVGArVa4CvQERquqUg0V+iwvISAEspxA2gJLmX5Ww7/A6fwNP2hQho9euv1j9Yh8fEKFxoRO3InD6ToM69y3QT5yvWIXB9xq5beli8KJWMny6Svdy3YCbKdNu16v66tfLZb+Did9yuzOoW0o7gSUXkx/f+r90wy5Si3Zgf0icVMPGPS37Tn+0ZTOzXiu/9nfho5B+1Dzc5PC6Dcu/wsBITBrAvR3nhplw4J96SdwY1ehV+yGuf5PoRWsSl8fPr579ccrVIgeqzSLn76sxh/B6TwEZeTAWPp5GHWfhcpZxFUtM12Cd9YDJw0IgSwnwF5cJwE31saBrRzEmuV9lu4JASGQLQTSDzLWONzhelhNz8JpO8iuXPJ+0D+Vu2jqIefj7PXHL1Qmz44EC7mC2l6B3fRUurjUElCqo1G1Dyq3hhc2mnpim9xPfgoBIXATAbJmUAaP3fYqlOfAWP4lKVN/EyX5QggIgesJpMWJa3OmnztUD7vtZa6RBCcOvfLTMJZ/GXr5jk+0BtonJ1SIFruCEqDgPfvKL+B0vc052pTmSIE6FHinRZfx2iFce0UyhK6fY/JJCFB9WCcFd7gRZKH0xq7AXPenvDDoXFWJFOhCQAgsAALs3hmDSyUKhutBy2o43XQPHoAWXQK9+i4Yi++DRl6OOao4+9tS/GSFymQv6WkwMQRnqB5u9xGudscVMENF0ApWQCtcB614A7T8FbyWAJfkFtEySU9+3sIEPDsBp/uIXyWy9xgvCBrY9B/9arHyN3ILzww5dSEwAwEyDthxjjnxhmmZjHNwB8/BHW3hqtRkHCAril62HVp0KQfBZ0O9s+wQKmxcSa/i6iThJQdZ2dmXn4c7dIHBcq62SdUuy6CVbuUiM1SXQYVKuUT3DEMiXwmBeU+AVzEO5N+UFcfxKOQ6vfw8rHP/B+5YK/8tBLb/NfTyXZ/4E9C8By8nIAQWCgFaoyvWBi/Wxtl9lJ3HRR9p9XOKbQ8Wwqi4DfriA2wQUIF8LtCoqBx+ljzsZI1QuX5OkGgh5TfBKY1O33vwBs9zDQgSMRSN7KVigEfLylMRKspCkJcQWGAElA6j7gCCW//aX5V02kXDTQ7DOvW3bEnhsvZ86ooD0WdKK15gZGZxOn5W0ywakF2FwPwiwIuF6rxquTJzQUKEyhBoeXUcXkHWE5VT7S8eyok8H182z28L8uZCCb/tnnO6na/kCKpOcSpF6wEq+03VLpPDcCe6uBQ37AnAseBxqiSZZea0U9K4EPh4CSjlr6dj5tx0XJVO9aW/EV6Thya/QUtW7IVWuFYsKjcRm/yCSvdn34V4snfyUwhklAAtZUPlAPQAu3F4TZ5IGVSgwF/FnITLPFjOIkstKh8wVFzHweFS3tcsKaJQPoCY/Go+E6CaJFSiepo1hU/Hc+HS6sdXX4ZV/z24QxfZBWqufhzmhj+DMqPz+aznru+iUeaOrbSchQQmJ3zajcM1jvSbrydZ2PPpXcpSi8r0Lt7wXmlpBWje8Av5KARuIQL0dxAu4+XVac0d69JPYF99CU7/SRjjnVAlZfPiSekWGjE5VSEgBD4igfknVD7iicpuQmChEeCiiEYIeulW9jFThhzVJaI0Q61onR+vstBOWs5HCAiBW47A/HP93HJDJCcsBD6cAGcBWbEpFxCl83Ma/4fvKlsIASEgBLKagAiVrB4e6ZwQEAJCQAgIgVubAIXAy0sICAEhIASEgBAQAllJQIRKVg6LdEoICAEhIASEgBAgAiJUZB4IASEgBISAEBACWUtAhErWDo10TAgIASEgBISAEBChInNACAgBISAEhIAQyFoCIlSydmikY0JACAgBISAEhIAIFZkDQkAICAEhIASEQNYSEKGStUMjHRMCQkAICAEhIAREqMgcEAJCQAgIASEgBLKWgAiVrB0a6ZgQEAJCQAgIASEgQkXmgBAQAkJACAgBIZC1BESoZO3QSMeEgBAQAkJACAgBESoyB4SAEBACQkAICIGsJSBCJWuHRjomBISAEBACQkAIiFCROSAEhIAQEAJCQAhkLQERKlk7NNIxISAEhIAQEAJCQISKzAEhIASEgBAQAkIgawmIUMnaoZGOCQEhIASEgBAQAiJUZA4IASEgBISAEBACWUtAhErWDo10TAgIASEgBISAEBChInNACAgBISAEhIAQyFoCIlSydmikY0JACAgBISAEhIAIFZkDQkAICAEhIASEQNYSEKGStUMjHRMCQkAICAEhIAREqMgcEAJCQAgIASEgBLKWgAiVrB0a6ZgQEAJCQAgIASFgCAIhIATmlkCi+yKeP9qC23bfgTzrPbzwUh9ue/hhrCicdlwngaHBUaRcb9qX9FYhEInAdFLwwgVwOk/h1XN9uH3vnajKN+H0XcTPXjiNxfffjx3l+el9Lbz3zLfRWP0wvrKr+ob2AM+xEI/HYbmAYQYRCgagKQWlbtr04/vCjuPsr57AC/XFOPB7d6A8fWQvNYJ3XnwJ8ZW7sXttDQL0vR5ASLlI2jYmaWmhHAStCcSdyW+mdd0Ioyg/F6ahYaDhMJ45PoAvPPgZFAZtjAyPw5m26eRbpemI5ObBiY8gMXAeP/1lH3Z/dR/3Sw/nIz+QwvBIHG56B6WbyIkWICcgz36TDOWnEMgUAREqmSIp7QiB6QSsUVxuuoL+sQRSI53o7uzB+TMnELYvo7d/FPWnjmEoVyGnaAlWLiuBmezDybfeRkNLI4ZUCWoqQuhtvARUbcKW7Suhnz+Ewa1/iv0hFxbdoD0P490NOHbsJDoSSRQ2XsSxzhxU1CxDbfgyTl9KIa+0A8eOdXCvzGAJVmxaiuBoDxovnMW5pnbEHA/BcDFWbt2NHcuKWBRNP4WP7b0TR9fZ1/HqFQPm+En87MlBLFlUAMPzkEwOIp7Q0PfKz9HVshTl4QAQLcdiM4n2vj60tTbDKFmGug1roR39JZryVqEiME1v4qsAAA40SURBVIKWxgEUr6lDTmIYrXYVvv7F+1BTHIHnOml+Lvpaj+C5Z84hWFOBsH792RqhXKzZvA2xprdx+XIL2sYCOPHay5jouAJr7RfxaOVF/OTlNhQtLkXAsdE/OITNB/4Q+1bkXd+QfBICQmDWBESozBqhNCAEZiCQ7ME7B49A37gaJSkLruPASqWgOw5c1+X3iatn8WY9UEtCJVKDOx8sQ9Ubz+KssRMP7ivBke/+I7zPPIY7F4/hvfpDGLzhMIONR3CiOw9b1tfCdJNoeu8Yuuw86KlmhDdtRqWeQioFYKAeL5/Pxe+tL0PixCH86qKLT23diGjYQ3wsDoVP0pTiYrS7EYfPD2HDpx/ESrcBZ7pdrNu8Aj3nzqJHLcG29cvR+tYLaCrdia/uWztFwYqP4dDzTyK84xHsWWbh1XNRbL33q9hf2IgffPddbPvSl1DXex5PHbkKeOM48eKLuNDRhb7eOF556QXkl4RRtmwrPv3QfpSHppq9/s3SR7HxzNPorF+Jrz62Ek0vPYWTebkAAqhedRvuffhTiKbieOPZ71y/n3wSAkIgYwREqGQMpTQkBG4kEMWa227HsuFL6JxowsZtdFPT0Nnei3U79mBZ3wDePebv033yRTz/1kUMDA4hjlZcPWEg1tsH/PhbOFO9CHXD8RsbB7QASmrXYteetQg5Nt4brUdTVwPeSOr49F23o6Yo7O9zJYHDDYOAPYHu3j6Eau/Czu2rEdAV4Hlp94liK40b78XZk6dwsaULkar12LZ1HUpSV3CqPx+rS8bx7pF3EKu+E/evVLjQ2ofFy1ajOJccMjYGms+h2arAjlWlGOtuQXssjLLgEN555wxGgovwqdu3oyYwhuNHDuPqiIGlO27H1roShANBaKleHD/4Y5xRDmKxMZw6+Tbiw8NAXjlazr6D1NgA+lNt+NaZaqzbdQ/2b6+9SV5Z4yM4/KNv4aSRQH/fOK7+/f9G0IpjMLIKdyKIuk07YeScRLc1jPWbNsNIXEH9QByXDj2LZxquIuX4LJRSyKvZiy8/ug053jiaG7pQu+p+3+00bRR4a28GV9O0beStEBACsycgQmX2DKUFIfA+BJLoa2tDcKwX47Ex9HS2I2YPYSI+ht6OVpjDY1P7VWw5gD9atwu/ee4Z2Gsfxj3rdfyaLSrfxF2LJ3Dx5Z+jJ0zCYmqXGd7YGB5MYllOBw6d6cTDe5YhJ/0XrheVocAMo6S4CGMXzqKpvRA15cXICZrQ2KDiYqLzHH723EH0BGuwuroUidQErIQFu/csXnyuByeXhFCUV47FhTlIDF/GyVPnkVe+NC1ULPQ2ncXRCQ87VhVjpLMJrx08Abt8NXasXwW3/jB+8ORJlJm5qN24AdWqBYeefAJjj/8Z7iqJoqRmM5bvq0O+qb3POeqIlpQgVv8G6j0gOdqHgd5+DMeSSPS0oyM/B3okin2PfPOaReUvpllUlIGiikK0149gdAxQRi6iOeTvMbFi//3Yc08Sl47+HG/3VuHAgd0oCZL2SqDj1Ot4I7Yajy1Lor21E80DJqqXBIGJBC6fegX/2Po2dM9FwjWwe/sMQyJfCQEhMGsCIlRmjVAaEALvRyCGppPvoTc5goHeEVw8dwoBpwdDo3E0njmO7kQPEFg1tXNf81toHCzBPbXFAIanvgciWHPvl7EGwFDztK/dFPqvnsfbbw7A9Fxc7XZQuWk77lm/DW88/wpeO2ni7h210JNJeJ4OaHlYs+PTGEkdwa+fexr5NSuxcuUqrF1Rg1wziast9RgMr8NXHr0blXnm1IFivS5sU8OG2x/DrmX5IEPM8JWpX7/vm6SqwP0P3ot1pblIVin0/OQlFOz7N3hgUyngLIHT+QM0t44CdVXYe08VBt/9If7uzTg2Lp4eZUzNJ9DZ2IOln/99PLDtXtQAGLx0FGfOXEZH/xiM+lPQzZVwEwm0n3oTeqQXvWO9OH/4MLpiXegfI9UBWLFx9LS1YSLh4dXnXsBaDjQOY6zjAi539aCzuQt9YxM4/raL4kWrsTbciXcaRrBl3wGER6/i+PEmpKpWY7F9Be1uHe59ZDvWbKpDyLbQdPotqHwO9X1fHvILISAEPhoBESofjZvsJQR+CwLF2PW5z7Pr56dvNeH2fXcjmnoXP/9lL26//xEs63sef5d2/VAcyWu/7saaAw+jJkpNR7B2//3wSLPQq+8MnnrtPMbJHVK9AcGggbhS0PQAgqEQAp4LkxQEvcLV+NQdm/CDf30FZ8sexcqJODzXdwPp0RrsuvuzqFvejJbLzTh56Je4MnIAj20rwHDfIMIVK9jK4jc0+b9CTm4Ryst9kTL57Yf+jOaj2PQvMcFgAIZZjsrKdDCIHkFexITr2Nc149kWEonEdd8BSdjOZH6N/6uiFbfh/kXrcOj5AYR3fJZjVA4e02AGQpzFpGs6AqEQgqkANN9khOG+q+gdy0HhokrcucTB6xd7UButg2akGZo6dMNEMBhC0NCg5ZRj695ylFcWImwU4oFHNvHBG37xP9FQ9nX8/nYKQAalTmHltjv89/K/EBACGScgQiXjSKXBW50AZ5akLDiug1QygWQyBceh90kkLZu/t5IJJFIOXMdCioJt82px3xcfRiCaAyeR4JTZSFEIR196GgN7HsTy3Grsur0ArqcQzi9CQVBDXJkoql6BrTv8GBXVewp+jg8QLFmN3Zuu4lJzO6oLAa0oH5P5KJqZg+rlG1BRtxIVgZ/i6eNnMLx1L5Sn+KauFPmXrg+wVUpPu4imjS5t5vmeGuXZSNk2rsuuvinf2YBhXGv3pl+TPKteiz176qYdJP12j46cwjAsx7smyKZv5eVgxyNfh5dThEgyjIvvDKFu3XosV6uxPG4jmmfi3OFTiK5Yj7yeUVRuuhsHCt/FuUYXwaIarCktQyDWij6zEqvWbUBRUEOivwWnX30JLVPGLQ+2ZSMx1o8J/dv4728GYerX0pFD1RvwwN17UVsklpXpQyPvhcBsCYhQmS1B2V8I3EBgor8Vb752CCNB4OiPfoCj6d+/9oufTG35m589gd8AyEE3fvWqhzv37kZh7BieeObC1DauE8dg7zBCnX3InfLEBLB4217s27ZyaruZ3ig9jDX7HmJ3Ud+xM4CmQXdSiI0noIIhhAyD66mkLBsIGDCDYZRUlmD8XCu6BlcgpywMJ2XB02e+RGiaBi0Zw9B4HJ4XgTXSi9auPsTZGjRTj36778Yuv4sXRs7PuPHEYCeq7v1LfHVH2pJBOikVR29bM1o8C+8eOoGBlA04E+juH0XvP38fb7EaKsGuR3chXL4Xm6K9aO2hGJUwojkBINGLoy//DH29g+maKIN47gfnEcpbhP0Pfw4PPb6a++JYSfR31uP8qX4MDPwGV+xlWLNqLXZuWYaSaATX5MqMXZcvhYAQmAWBma9Cs2hQdhUCtzqBnLKluO8r3/Ax2El0tZxHt1aJNUsqoafG0HTmNNSiNVhWXYwp/UFb5+7HN76xfwpfYrQZB599A3UP/CE2lk19PfVmyE2ip+UUDr3aCcNz0dGRQOFkpbSprcbR1jYIIxAC4oM4f+woLo9pyA8F4EwMoKMvhQ07NiFHhVC1fAtWtRzEawdfxJXyKFJWECu2bEblVFvX3oQLSrC0UOHYm7/GcEshnOQEhpMOeUFm9Sra+AC+8TmKxrn5df75v8Vp/jqFnoZzOH+lF312ESKxNlyObcTDj/+xb20ZS6cn/8mXsCbteuLdyoD+i73XNxyqwJ7PfkB6MpLoPHcKF7pGYNkGFm3eiLIzpxEv3IV10VacePstBILl2Lp/Ewqub1k+CQEhkCECIlQyBFKaEQLXE4ij+c3X8FbLEPKrV2Hz+hAHoWq6gWhxCPXvvY53DsZQt+cR7FsRQOuxN/DWhXYkp4ViONY4ejv70fzsEzjux4NOHSJ31X7cBg2hnAKUlpVxjEqsqzH9+z689fSraByjlOYEevtCuOMrVUAogKWr1yNnYBQTSQd6RRVWbivDoupSUFnacMli7Ln/c6jt7EMsbsEIF6EkGkY4ZzceyVWomFZrxMwrx/a7P4uKjh6MJjxECoqxectmxA26XesoXrYVDxU6KMhJK5doLe74bBR5uZONhLD09gMoCpZMnRO9GT5/EE/0v33dd5MfxnqGUVpFnzSE8gpRXh1E3frbUFsNnHv5EH544lXfKmLH0NY/hIEnn8Tb6fgUVb0Dj9+7YbKp9E8b3Q2n8NN/aUHwhoJvWjCMytrlsFovAotWoq5mCSoXr0BxGGg4Q8lCuViycSfyCtvR2d+Bg088Aat8Fe7YvRNVBbNUazf0Uj4KgVudgPKoxKW8hIAQyBiB1OBV/ObVX6K7ZD/u27IIkUgEkeD0ZwIXyYk4Eskkmo88j0ZjHfbftg4RXCsJ/2GdUWYYEd1GyjMRDplcD8VKTsDRQggHPEyMTcCaDBhRJnJywzDSN22qneJ6HqheCP278cWXBLosKO3Dy+pzW7Tp7MvGuakJjMWtG7tz3WcznIfITWXqHSTGJ5C0p6m86/aigNcQ8nOCGLz0Dp4/NYgH770ThREPE+PJqTL41+2iFAzDBAX3Unn+sKlPsWh+5Ts4WfIYHt3i21A8z8L46ARcPYBIOARjMqj5ugblgxAQAh+VgAiVj0pO9hMCQkAICAEhIATmnIDEgM05YjmAEBACQkAICAEh8FEJiFD5qORkPyEgBISAEBACQmDOCYhQmXPEcgAhIASEgBAQAkLgoxIQofJRycl+QkAICAEhIASEwJwTEKEy54jlAEJACAgBISAEhMBHJSBC5aOSk/2EgBAQAkJACAiBOScgQmXOEcsBhIAQEAJCQAgIgY9K4P8Dz6Muw97c6J8AAAAASUVORK5CYII=;" vertex="1" parent="1">
          <mxGeometry x="55" y="25" width="554" height="275" as="geometry" />
        </mxCell>
        <mxCell id="bG5B1XlodGknCoYs8dsf-1" value="锦江汽车平台开发清单" style="swimlane;fontStyle=0;childLayout=stackLayout;horizontal=1;startSize=30;horizontalStack=0;resizeParent=1;resizeParentMax=0;resizeLast=0;collapsible=1;marginBottom=0;fillColor=#fff2cc;strokeColor=#d6b656;" vertex="1" parent="1">
          <mxGeometry x="84" y="333.5" width="147" height="210" as="geometry" />
        </mxCell>
        <mxCell id="bG5B1XlodGknCoYs8dsf-2" value="巡游出租业务" style="text;strokeColor=#d6b656;fillColor=#fff2cc;align=left;verticalAlign=middle;spacingLeft=4;spacingRight=4;overflow=hidden;points=[[0,0.5],[1,0.5]];portConstraint=eastwest;rotatable=0;fontStyle=1" vertex="1" parent="bG5B1XlodGknCoYs8dsf-1">
          <mxGeometry y="30" width="147" height="30" as="geometry" />
        </mxCell>
        <mxCell id="bG5B1XlodGknCoYs8dsf-3" value="1.定车定员" style="text;strokeColor=#d6b656;fillColor=#fff2cc;align=left;verticalAlign=middle;spacingLeft=4;spacingRight=4;overflow=hidden;points=[[0,0.5],[1,0.5]];portConstraint=eastwest;rotatable=0;" vertex="1" parent="bG5B1XlodGknCoYs8dsf-1">
          <mxGeometry y="60" width="147" height="30" as="geometry" />
        </mxCell>
        <mxCell id="bG5B1XlodGknCoYs8dsf-5" value="2.发票管理" style="text;strokeColor=#d6b656;fillColor=#fff2cc;align=left;verticalAlign=middle;spacingLeft=4;spacingRight=4;overflow=hidden;points=[[0,0.5],[1,0.5]];portConstraint=eastwest;rotatable=0;" vertex="1" parent="bG5B1XlodGknCoYs8dsf-1">
          <mxGeometry y="90" width="147" height="30" as="geometry" />
        </mxCell>
        <mxCell id="bG5B1XlodGknCoYs8dsf-6" value="3.缴费管理" style="text;strokeColor=#d6b656;fillColor=#fff2cc;align=left;verticalAlign=middle;spacingLeft=4;spacingRight=4;overflow=hidden;points=[[0,0.5],[1,0.5]];portConstraint=eastwest;rotatable=0;" vertex="1" parent="bG5B1XlodGknCoYs8dsf-1">
          <mxGeometry y="120" width="147" height="30" as="geometry" />
        </mxCell>
        <mxCell id="bG5B1XlodGknCoYs8dsf-4" value="4.营业报表" style="text;strokeColor=#d6b656;fillColor=#fff2cc;align=left;verticalAlign=middle;spacingLeft=4;spacingRight=4;overflow=hidden;points=[[0,0.5],[1,0.5]];portConstraint=eastwest;rotatable=0;" vertex="1" parent="bG5B1XlodGknCoYs8dsf-1">
          <mxGeometry y="150" width="147" height="30" as="geometry" />
        </mxCell>
        <mxCell id="bG5B1XlodGknCoYs8dsf-7" value="...." style="text;strokeColor=#d6b656;fillColor=#fff2cc;align=left;verticalAlign=middle;spacingLeft=4;spacingRight=4;overflow=hidden;points=[[0,0.5],[1,0.5]];portConstraint=eastwest;rotatable=0;" vertex="1" parent="bG5B1XlodGknCoYs8dsf-1">
          <mxGeometry y="180" width="147" height="30" as="geometry" />
        </mxCell>
        <mxCell id="bG5B1XlodGknCoYs8dsf-8" value="迭代待办事项" style="swimlane;fillColor=#d5e8d4;strokeColor=#82b366;" vertex="1" parent="1">
          <mxGeometry x="279" y="333.5" width="235" height="103" as="geometry" />
        </mxCell>
        <mxCell id="bG5B1XlodGknCoYs8dsf-9" value="1.定车定员" style="text;strokeColor=#82b366;fillColor=#d5e8d4;align=left;verticalAlign=middle;spacingLeft=4;spacingRight=4;overflow=hidden;points=[[0,0.5],[1,0.5]];portConstraint=eastwest;rotatable=0;" vertex="1" parent="bG5B1XlodGknCoYs8dsf-8">
          <mxGeometry y="25" width="235" height="30" as="geometry" />
        </mxCell>
        <mxCell id="bG5B1XlodGknCoYs8dsf-10" value="2.发票管理" style="text;strokeColor=#82b366;fillColor=#d5e8d4;align=left;verticalAlign=middle;spacingLeft=4;spacingRight=4;overflow=hidden;points=[[0,0.5],[1,0.5]];portConstraint=eastwest;rotatable=0;" vertex="1" parent="bG5B1XlodGknCoYs8dsf-8">
          <mxGeometry x="2" y="58" width="233" height="30" as="geometry" />
        </mxCell>
        <mxCell id="bG5B1XlodGknCoYs8dsf-13" value="" style="endArrow=classic;html=1;rounded=0;exitX=0.253;exitY=0.673;exitDx=0;exitDy=0;exitPerimeter=0;dashed=1;fillColor=#d5e8d4;strokeColor=#82b366;" edge="1" parent="1" source="bG5B1XlodGknCoYs8dsf-11" target="bG5B1XlodGknCoYs8dsf-1">
          <mxGeometry width="50" height="50" relative="1" as="geometry">
            <mxPoint x="158" y="252" as="sourcePoint" />
            <mxPoint x="208" y="202" as="targetPoint" />
          </mxGeometry>
        </mxCell>
        <mxCell id="bG5B1XlodGknCoYs8dsf-14" value="" style="endArrow=classic;html=1;rounded=0;exitX=0.253;exitY=0.673;exitDx=0;exitDy=0;exitPerimeter=0;dashed=1;fillColor=#d5e8d4;strokeColor=#82b366;entryX=0.5;entryY=0;entryDx=0;entryDy=0;" edge="1" parent="1" target="bG5B1XlodGknCoYs8dsf-8">
          <mxGeometry width="50" height="50" relative="1" as="geometry">
            <mxPoint x="337.35200000000003" y="205.99500000000003" as="sourcePoint" />
            <mxPoint x="317.00207179599437" y="329.42" as="targetPoint" />
          </mxGeometry>
        </mxCell>
      </root>
    </mxGraphModel>
  </diagram>
</mxfile>
